<svg id="Layer_1" data-name="Layer 1" xmlns="http://www.w3.org/2000/svg" viewBox="0 0 38.98 39.69"><defs><style>.cls-1{fill:#4aa4ff;}</style></defs><title>icon_busy</title><path class="cls-1" d="M21.87.68c.32.63,0,.95,0,1.58-.63,3.8-1.26,7.61-2.22,11.72-.31,1.27.32,1.27,1.27,1.27,3.17.32,6,.32,9.19.64a8,8,0,0,1,2.53.31C26.94,23.8,21.56,31.41,15.54,39a16.32,16.32,0,0,1,.63-4.43q.95-5.23,1.9-10.46c.32-1.27-.32-1.58-1.27-1.58-3.16-.32-6.33-.32-9.5-.64-1,0-1.27-.31-.63-1.26,5.07-6.34,9.82-13.31,15.2-20Z"/></svg>