<svg id="Layer_1" data-name="Layer 1" xmlns="http://www.w3.org/2000/svg" viewBox="0 0 38.98 39.69"><defs><style>.cls-1{fill:#1fbf8f;}</style></defs><title>icon_steemit</title><path class="cls-1" d="M33.59,12.38a15.16,15.16,0,0,0-5.33-3.46c1.13-3.33,5.14-4.54,5.14-4.54S24-.48,13.69,1.46A16,16,0,0,0,4.52,6.92,14.37,14.37,0,0,0,6.08,27.31c.94.8,3,2.05,3.07,2.12-1.37,3.49-5.77,4.45-5.77,4.45A36.52,36.52,0,0,0,17,38.46a29.12,29.12,0,0,0,6.55.08,16.69,16.69,0,0,0,10-4.9A15,15,0,0,0,33.59,12.38ZM30.92,31.31a13.94,13.94,0,0,1-8.07,3.74,25.4,25.4,0,0,1-5.58,0,26.79,26.79,0,0,1-6.63-1.81A10,10,0,0,0,13,29.85a2.59,2.59,0,0,0-.08-2.06,11,11,0,0,1,2.24-12.68A11.27,11.27,0,0,1,24.47,12a11.15,11.15,0,0,1,6.64,3.21A11.5,11.5,0,0,1,30.92,31.31Z"/></svg>