<svg xmlns="http://www.w3.org/2000/svg" width="27.652" height="26.5" viewBox="0 0 27.652 26.5"><defs><style>.a{fill:#fff;}</style></defs><path class="a" d="M13.826.5A13.706,13.706,0,0,0,0,14.086a13.609,13.609,0,0,0,9.453,12.89c.691.128.945-.293.945-.653,0-.323-.012-1.178-.017-2.31-3.846.819-4.657-1.823-4.657-1.823A3.622,3.622,0,0,0,4.186,20.2c-1.252-.842.1-.825.1-.825a2.892,2.892,0,0,1,2.118,1.4,2.977,2.977,0,0,0,4.027,1.13,2.877,2.877,0,0,1,.876-1.817c-3.07-.34-6.3-1.508-6.3-6.714A5.191,5.191,0,0,1,6.428,9.732a4.754,4.754,0,0,1,.121-3.6s1.158-.364,3.8,1.393a13.256,13.256,0,0,1,6.913,0c2.627-1.757,3.785-1.393,3.785-1.393a4.885,4.885,0,0,1,.138,3.6A5.212,5.212,0,0,1,22.6,13.378c0,5.219-3.232,6.368-6.308,6.7a3.224,3.224,0,0,1,.933,2.514c0,1.818-.017,3.279-.017,3.72,0,.356.242.781.951.645a13.568,13.568,0,0,0,9.489-12.873A13.708,13.708,0,0,0,13.826.5Z" transform="translate(0 -0.5)"/></svg>