<svg xmlns="http://www.w3.org/2000/svg" width="31.113" height="27" viewBox="0 0 31.113 27"><defs><style>.a{fill:#fff;}</style></defs><g transform="translate(-0.003)"><g transform="translate(0.003)"><g transform="translate(0)"><path class="a" d="M130.333,15.216a.134.134,0,0,1,.116.2L123.81,26.886a.134.134,0,0,1-.116.067h-4.058a.134.134,0,0,1-.116-.2l6.639-11.469a.134.134,0,0,1,.116-.067Zm-3.947-3.287a.134.134,0,0,1-.116-.067L119.52.2a.134.134,0,0,1,.116-.2h4.058a.134.134,0,0,1,.116.067l6.75,11.661a.134.134,0,0,1-.116.2Z" transform="translate(-108.073)"/><path class="a" d="M19.1.2a.134.134,0,0,1,.116-.2h4.052a.134.134,0,0,1,.116.067L31.1,13.409a.134.134,0,0,1,0,.134L23.385,26.886a.134.134,0,0,1-.116.067H19.217a.134.134,0,0,1-.116-.2l7.675-13.275ZM15.746,13.456a.136.136,0,0,1,0,.135l-7.7,13.342a.135.135,0,0,1-.232,0L.021,13.592a.136.136,0,0,1,0-.135L7.725.115a.135.135,0,0,1,.232,0Z" transform="translate(-0.003)"/></g></g></g></svg>