<svg xmlns="http://www.w3.org/2000/svg" viewBox="0 0 32 24"><defs><style>.a{fill:#21496c;}</style></defs><g transform="translate(0 -64)"><g transform="translate(0 64)"><path class="a" d="M27.36,72.214A4.79,4.79,0,0,0,24,64a4.82,4.82,0,0,0-2.489.7.533.533,0,0,0,.551.914A3.734,3.734,0,0,1,27.733,68.8a3.713,3.713,0,0,1-1.7,3.127,3.753,3.753,0,0,1-3.065.461.533.533,0,1,0-.293,1.025A4.814,4.814,0,0,0,24,73.6a4.752,4.752,0,0,0,2.369-.642,6.907,6.907,0,0,1,4.564,6.509v2.667H26.07a10.141,10.141,0,0,0-5.888-8.16,5.867,5.867,0,1,0-8.364,0,10.276,10.276,0,0,0-2.986,2.06,10.078,10.078,0,0,0-2.908,6.1H1.067V79.467a6.906,6.906,0,0,1,2.029-4.9,7.008,7.008,0,0,1,2.54-1.6A4.756,4.756,0,0,0,8,73.6a4.814,4.814,0,0,0,1.325-.186.533.533,0,1,0-.293-1.025,3.752,3.752,0,0,1-3.068-.463A3.731,3.731,0,0,1,8,65.067a3.753,3.753,0,0,1,1.938.542.533.533,0,0,0,.551-.914A4.8,4.8,0,0,0,3.2,68.8a4.768,4.768,0,0,0,1.437,3.411,8.124,8.124,0,0,0-2.295,1.6A7.969,7.969,0,0,0,0,79.467v3.2a.533.533,0,0,0,.533.533H5.867v4.267A.533.533,0,0,0,6.4,88H25.6a.533.533,0,0,0,.533-.533V83.2h5.333A.533.533,0,0,0,32,82.667v-3.2A7.971,7.971,0,0,0,27.36,72.214ZM11.2,69.867a4.8,4.8,0,1,1,4.8,4.8A4.805,4.805,0,0,1,11.2,69.867ZM25.067,86.933H6.933V83.2a9.025,9.025,0,0,1,2.653-6.411,9.16,9.16,0,0,1,3.165-2.041,5.848,5.848,0,0,0,6.5,0A9.07,9.07,0,0,1,25.067,83.2v3.733Z" transform="translate(0 -64)"/></g></g></svg>