<svg xmlns="http://www.w3.org/2000/svg" viewBox="0 0 26.182 24"><defs><style>.a{fill:#21496c;}</style></defs><g transform="translate(0 -21.338)"><g transform="translate(0 21.338)"><path class="a" d="M22.555,30.067l-.191,0A7.067,7.067,0,0,0,16.1,33.879a5.921,5.921,0,0,0-6.292.854,22.587,22.587,0,0,0-.262-2.7,16.115,16.115,0,0,1-.206-1.969h2.758a1.626,1.626,0,0,0,1.157-.479L15.433,27.4a1.631,1.631,0,0,0,.033-2.265,1.63,1.63,0,0,0-.452-2.266L13.69,21.99a3.871,3.871,0,0,0-2.155-.653A5.966,5.966,0,0,0,7.288,23.1,23.266,23.266,0,0,0,2.4,30.21C1.008,33.378.3,35.715.3,37.156A7.583,7.583,0,0,1,.09,39.15a2.42,2.42,0,0,0,1.154,2.757,26.087,26.087,0,0,0,12.921,3.431h.789A26,26,0,0,0,23.19,44l.382-.128a3.812,3.812,0,0,0,2.611-3.622V33.888A3.8,3.8,0,0,0,22.555,30.067Zm2.537,10.185a2.724,2.724,0,0,1-1.865,2.587l-.382.128a24.917,24.917,0,0,1-7.89,1.28h-.789a24.992,24.992,0,0,1-12.38-3.288,1.332,1.332,0,0,1-.646-1.512,8.617,8.617,0,0,0,.254-2.292c0-1.271.693-3.521,2-6.508a22.164,22.164,0,0,1,4.661-6.78,4.883,4.883,0,0,1,3.476-1.44,2.785,2.785,0,0,1,1.55.469l1.324.883a.546.546,0,0,1,.084.84L12.75,26.363a.612.612,0,0,1-.865-.865l.5-.5a.545.545,0,0,0-.771-.771l-.5.5a1.7,1.7,0,1,0,2.408,2.408l1.193-1.193a.539.539,0,0,1-.053.692L12.48,28.815a.549.549,0,0,1-.386.16H9.548a.823.823,0,0,1,.112-.159.545.545,0,0,0-.771-.771c-.892.892-.675,2.4-.425,4.146a19.691,19.691,0,0,1,.265,2.785,2.636,2.636,0,0,1-1.773,2.744.545.545,0,0,0,.268,1.057A3.556,3.556,0,0,0,9.485,36.7c.007-.01.019-.014.026-.024a4.91,4.91,0,0,1,7.581-.825.545.545,0,0,0,.768-.775,6.04,6.04,0,0,0-.815-.665,5.981,5.981,0,0,1,5.319-3.256l.161,0a2.7,2.7,0,0,1,2.566,2.73v6.364Z" transform="translate(0 -21.338)"/></g></g></svg>