<svg xmlns="http://www.w3.org/2000/svg" viewBox="0 0 24 24"><defs><style>.a{fill:#5c9dd5;}</style></defs><path class="a" d="M1.485,16.488a12.479,12.479,0,0,0,2.025.074,8.031,8.031,0,0,0,2.615-.516c.625-.22,1.21-.589,1.841-.882.6-.3,1.192-.59,1.79-.879q-.142-.311-.278-.621A31.734,31.734,0,0,1,8.043,9.732a4.437,4.437,0,0,1,.332-3.277A10.3,10.3,0,0,1,10.391,3.87,12.005,12.005,0,0,0,1,15.581q0,.426.03.843a4.186,4.186,0,0,0,.455.065Z" transform="translate(-1 -3.581)"/><path class="a" d="M110.231,1.477a12.483,12.483,0,0,0-.074,2.025,8,8,0,0,0,.516,2.615c.22.626.589,1.21.882,1.841q.414.829.817,1.66c.65-.3,1.3-.587,1.975-.861A8.748,8.748,0,0,1,117,7.873c2.245-.146,4.162,1.585,5.6,3.094.145.145.289.3.434.449A12,12,0,0,0,111.139,1q-.423,0-.837.029a4.091,4.091,0,0,0-.071.448Z" transform="translate(-99.139 -1)"/><path class="a" d="M15.644,155.234c.009-.034.018-.069.025-.1a11.212,11.212,0,0,0,.663-3.646,9.529,9.529,0,0,0-.846-2.873c-.313-.759-.659-1.5-1.021-2.237-.286.133-.573.263-.862.388A31.742,31.742,0,0,1,9.66,148.2a4.437,4.437,0,0,1-3.277-.333A10.248,10.248,0,0,1,3.79,145.84a12,12,0,0,0,11.719,9.394Z" transform="translate(-3.509 -131.234)"/><path class="a" d="M146.022,112.495a11.248,11.248,0,0,0-3.646-.663,9.541,9.541,0,0,0-2.873.846c-.715.294-1.412.619-2.107.958.335.729.664,1.463.972,2.218a8.713,8.713,0,0,1,.882,2.65c.147,2.246-1.584,4.163-3.093,5.6-.148.148-.3.3-.458.442a12,12,0,0,0,10.417-11.9v-.129Z" transform="translate(-122.117 -100.648)"/></svg>