<svg xmlns="http://www.w3.org/2000/svg" width="68.261" height="70.508" viewBox="0 0 68.261 70.508"><defs><style>.a{opacity:0.68;}.b,.d{fill:#fff;}.c{fill:#bebebe;}.d{opacity:0.5;}</style></defs><g class="a"><g transform="translate(0 0)"><path class="b" d="M65.791,23.691c-1.485-3.571-4.5-7.431-6.858-8.646a35.377,35.377,0,0,1,3.46,10.371l.008.058a.043.043,0,0,0,0-.011c-.058-.147-.118-.293-.179-.437q-.277-.664-.571-1.293h0q-.2-.419-.4-.829c-.068-.135-.136-.27-.2-.4q-.206-.4-.419-.783c-.071-.128-.142-.256-.216-.383-.355-.632-.731-1.238-1.115-1.824q-.231-.355-.468-.7c-.155-.227-.314-.452-.474-.674h0q-.237-.334-.482-.659c-2.685-3.595-5.746-6.561-8.646-10.315-.083-.107-.166-.214-.248-.322-.269-.355-.535-.711-.8-1.08q-.521-.721-1.029-1.486h0c-.167-.255-.335-.513-.5-.776-.271-.426-.544-.858-.807-1.3-.152-.259-.272-.493-.377-.711A6.211,6.211,0,0,1,44.944.13a.082.082,0,0,0-.017-.051A.067.067,0,0,0,44.91.06a.089.089,0,0,0-.043-.02.207.207,0,0,0-.066,0l-.015.012a.045.045,0,0,1-.024.012V.058h0L44.772.04c-8.584,5.027-11.5,14.332-11.764,18.986.4-.027.8-.062,1.2-.062A17.241,17.241,0,0,1,49.179,27.7a11.805,11.805,0,0,0-8.231-2h-.012c9.177,4.59,9.664,17.55,2.231,23.491-.091.073-.185.146-.28.217s-.181.135-.274.2h-.007c-.092.066-.185.13-.28.194l-.161.107c-.086.057-.175.118-.265.169l-.054.033q-.131.082-.267.16-.244.141-.5.274c-.081.043-.162.084-.245.126-.124.063-.251.118-.379.182-.333.154-.674.295-1.027.425l-.355.126a16.76,16.76,0,0,1-6.176.8,15.258,15.258,0,0,1-4.444-.856c-.334-.124-.668-.264-1.006-.411-.193-.09-.387-.175-.577-.276-4.174-2.156-7.618-6.233-8.054-11.181,0,0,1.387-5.165,9.558-5.814.547-.043,1.125-.066,1.735-.066a.279.279,0,0,0,.044,0c1.084-.076,3.988-2.915,4.066-3.767h0a.024.024,0,0,0,0-.008c-.011-.28-5.961-2.646-8.28-4.93-1.237-1.222-1.826-1.807-2.346-2.25h-.006a9.556,9.556,0,0,0-.881-.667,15.872,15.872,0,0,1-.1-8.354h-.009q-.434.211-.86.438c-.193.1-.384.208-.574.316q-.859.487-1.675,1.038a25.266,25.266,0,0,0-5.1,4.557h-.015c-1.348-1.71-1.261-7.332-1.184-8.546v-.014a6.4,6.4,0,0,0-1,.513l-.142.092c-.221.159-.441.32-.656.487l-.225.173a24.9,24.9,0,0,0-2.459,2.2A29.771,29.771,0,0,0,5.7,18.458l-.181.255h0A28.885,28.885,0,0,0,.948,29.079a.1.1,0,0,1,0,.015l-.007.033L.9,29.3c-.014.065-.036.186-.062.338a.024.024,0,0,1,0,.008c-.095.558-.237,1.533-.275,1.787a.474.474,0,0,1-.007.073c-.006.028-.011.057-.015.085C.428,32.2.335,32.813.255,33.425c-.027.208-.052.418-.075.627-.008.073-.017.149-.024.224-.038.355-.069.7-.094,1.058-.009.118-.017.237-.023.346-.023.181-.032.361-.04.544V36.4a34.174,34.174,0,0,0,67.851,5.778c.058-.443.1-.876.155-1.323a35.131,35.131,0,0,0-2.215-17.159Zm-3.378,1.792h0v0ZM26.887,50.68H26.9c-.167-.077-.334-.159-.5-.248l.076.037.159.081.018.009c.072.036.146.071.22.105Z" transform="translate(0 -0.033)"/><path class="b" d="M65.791,135.386c-1.485-3.572-4.5-7.431-6.857-8.646a35.4,35.4,0,0,1,3.46,10.371v.031l.007.034a30.952,30.952,0,0,1-1.066,23.066c-3.917,8.41-13.4,17.019-28.236,16.6C17.069,176.386,2.948,164.487.307,148.9c-.481-2.459,0-3.7.237-5.7A25.668,25.668,0,0,0,0,147.918v.173a34.174,34.174,0,0,0,67.851,5.777c.058-.442.1-.876.155-1.322a35.114,35.114,0,0,0-2.215-17.159Z" transform="translate(0 -111.728)"/><path class="c" d="M65.791,135.386c-1.485-3.572-4.5-7.431-6.857-8.646a35.4,35.4,0,0,1,3.46,10.371v.031l.007.034a30.952,30.952,0,0,1-1.066,23.066c-3.917,8.41-13.4,17.019-28.236,16.6C17.069,176.386,2.948,164.487.307,148.9c-.481-2.459,0-3.7.237-5.7A25.668,25.668,0,0,0,0,147.918v.173a34.174,34.174,0,0,0,67.851,5.777c.058-.442.1-.876.155-1.322a35.114,35.114,0,0,0-2.215-17.159Z" transform="translate(0 -111.728)"/><path class="b" d="M295.1,27.88h0c-.069-.049-.136-.1-.208-.15h0a17.241,17.241,0,0,0-14.968-8.738c-.406,0-.8.034-1.2.062C278.99,14.392,281.9,5.087,290.479.06l-.011.019h0c-1,.474-5.769,7.757-3.343,15.885.039.129.079.258.118.388q.237.721.548,1.449c.057.131.118.264.178.4q.231.5.5,1,.162.3.34.592.237.4.5.8l.355.513.118.167c.077.1.154.207.237.312.153.2.309.4.474.592.083.1.168.2.255.3q.546.636,1.174,1.266c.078.077.155.154.237.237.118.118.237.237.347.362.332.355.65.726.948,1.107A18.328,18.328,0,0,1,295.1,27.88Z" transform="translate(-245.707 -0.053)"/><path class="d" d="M129.173,122.681c.276.174.5.329.711.474a15.872,15.872,0,0,1-.1-8.355,25.358,25.358,0,0,0-8.226,6.357C121.731,121.149,126.683,121.06,129.173,122.681Z" transform="translate(-107.162 -101.202)"/><path class="b" d="M526.831,214.419v.036l-.011-.032h0v-.063h0v.058h0S526.831,214.418,526.831,214.419Z" transform="translate(-464.421 -188.97)"/><path class="b" d="M62.43,133.4c-3.918,8.41-13.4,17.018-28.236,16.6q-.94-.026-1.869-.105-.373-.032-.743-.071l-.37-.041A35.011,35.011,0,0,1,9.419,138.442l-.237-.27a32.655,32.655,0,0,1-7.776-16.108,12.9,12.9,0,0,1-.088-3.6.023.023,0,0,0,0-.009c.006-.058.011-.118.015-.173q.036-.355.076-.7c.013-.105.026-.212.04-.316a.13.13,0,0,1,0-.021c.211-1.623.508-2.986.569-3.26l.007-.033a.1.1,0,0,0,0-.015,28.885,28.885,0,0,1,4.592-10.356h0l.181-.255.185-.251v-.006q.184-.249.371-.494l.017-.02a29.7,29.7,0,0,1,2.449-2.8,25.022,25.022,0,0,1,3.339-2.862,6.278,6.278,0,0,1,1.128-.6H14.3a27.675,27.675,0,0,0,.474,6.883,7.358,7.358,0,0,0,.252.81c.011.032.024.063.037.092a3.149,3.149,0,0,0,.42.766v.008h.015c.162,0,5.119-.094,7.614,1.528.275.182.5.329.711.474a9.927,9.927,0,0,1,.88.667c.52.443,1.11,1.028,2.346,2.25,2.31,2.274,8.224,4.631,8.279,4.926h-.007a17.018,17.018,0,0,1-12.822-.508,12.884,12.884,0,0,0-12.562.5,8.912,8.912,0,0,0,.7,1.226q.178.261.37.506c.1.118.2.243.3.355a8.765,8.765,0,0,0,6.729,3h0A14.476,14.476,0,0,0,20.9,129.97l.008.011c.111.149.226.3.343.445q.264.33.551.653c.118.14.251.277.383.415.066.07.135.14.2.208a18.122,18.122,0,0,0,5.12,3.6c.166.085.327.171.493.246a5.961,5.961,0,0,0,.632.368l.154.077.2.094c.06.028.118.056.185.083l.1.045c3.97,1.71,14.332,3.7,25.11-5.074l.02-.043c6.284-5.176,10.3-12.826,9.112-20.728A30.963,30.963,0,0,1,62.43,133.4Z" transform="translate(-1.091 -84.885)"/><path class="c" d="M349.421,23.687a18.651,18.651,0,0,1,3.173,4.146c.186.145.364.283.512.419,7.749,7.136,3.688,17.229,3.391,17.954,6.294-5.186,10.317-12.854,9.106-20.769-3.867-9.638-10.423-13.52-15.77-21.98-.271-.426-.544-.858-.807-1.3-.152-.261-.271-.493-.377-.711A6.243,6.243,0,0,1,348.137.09.091.091,0,0,0,348.06,0a.207.207,0,0,0-.066,0l-.015.012a.045.045,0,0,1-.024.012C346.637.656,338.8,13.063,349.421,23.687Z" transform="translate(-303.197 0.003)"/><path class="b" d="M253.3,236.67l-.019.043c-10.765,8.765-21.117,6.793-25.1,5.082l-.1-.043-.185-.083-.2-.094-.154-.077a5.951,5.951,0,0,1-.633-.368H226.9l-.024-.017c.191.1.384.187.578.276.338.147.67.287,1,.411a15.261,15.261,0,0,0,4.445.858,16.7,16.7,0,0,0,6.183-.8l.355-.126q.529-.193,1.027-.425c.128-.059.255-.118.379-.182.083-.04.165-.083.245-.126q.252-.133.5-.274.135-.078.267-.16l.054-.033c.09-.056.179-.113.265-.169l.161-.107c.095-.064.187-.128.28-.194h.007c.092-.066.184-.133.274-.2s.188-.143.28-.217c7.432-5.941,6.946-18.9-2.232-23.491h.012a11.81,11.81,0,0,1,8.226,2c.073.05.143.1.213.155s.139.105.2.158h0c.109.088.212.175.3.258C257.661,225.854,253.6,235.949,253.3,236.67Z" transform="translate(-200.007 -190.466)"/><path class="c" d="M100.012,237.382v.015c-.086.854-2.973,3.672-4.059,3.763a.277.277,0,0,1-.044,0c-.61,0-1.184.024-1.735.066-8.179.646-9.567,5.814-9.567,5.814.43,4.931,3.855,9,8.008,11.159l.044.023c-.075-.034-.148-.07-.22-.105l-.018-.009-.159-.081-.076-.037a18.161,18.161,0,0,1-5.109-3.585c-.068-.069-.136-.139-.2-.208-.13-.137-.258-.275-.383-.415q-.287-.321-.551-.653c-.118-.147-.237-.3-.343-.445l-.008-.011a14.488,14.488,0,0,1-2.877-10.186v-.012a8.777,8.777,0,0,1-6.724-2.984c-.1-.118-.2-.237-.3-.355q-.2-.251-.368-.516a8.833,8.833,0,0,1-.7-1.242,12.887,12.887,0,0,1,12.563-.5,17.016,17.016,0,0,0,12.829.509Z" transform="translate(-65.782 -207.587)"/></g></g></svg>