<svg xmlns="http://www.w3.org/2000/svg" xmlns:xlink="http://www.w3.org/1999/xlink" width="172.345" height="57.611" viewBox="0 0 172.345 57.611"><defs><style>.a{fill:none;}.b{clip-path:url(#a);}.c{fill:#a6a6a6;}.d{fill:#fff;}</style><clipPath id="a"><rect class="a" width="172.345" height="57.611"/></clipPath></defs><g class="b"><g class="b"><path class="c" d="M158.61,0H10.822A17.672,17.672,0,0,0,7.942.245a9.707,9.707,0,0,0-2.737.907A8.743,8.743,0,0,0,2.872,2.881a8.743,8.743,0,0,0-1.7,2.333A9.708,9.708,0,0,0,.265,7.95,17.543,17.543,0,0,0,.02,10.831c0,.446,0,.893,0,1.325V46.78a17.543,17.543,0,0,0,.245,2.881,9.794,9.794,0,0,0,.907,2.751,8.915,8.915,0,0,0,1.7,2.319,8.742,8.742,0,0,0,2.333,1.7,9.707,9.707,0,0,0,2.737.907,19.458,19.458,0,0,0,2.881.259H161.5a19.285,19.285,0,0,0,2.881-.259,9.952,9.952,0,0,0,2.751-.907,8.987,8.987,0,0,0,2.333-1.7,9.621,9.621,0,0,0,1.7-2.319,10.255,10.255,0,0,0,.893-2.751,19.284,19.284,0,0,0,.259-2.881c0-.446,0-.879,0-1.325V10.831a19.29,19.29,0,0,0-.259-2.881,10.155,10.155,0,0,0-.893-2.737,9.419,9.419,0,0,0-1.7-2.333,8.988,8.988,0,0,0-2.333-1.7,9.952,9.952,0,0,0-2.751-.907A17.543,17.543,0,0,0,161.5.029H158.61" transform="translate(0.009)"/><path d="M11.76,55.952h-1.3a16.592,16.592,0,0,1-2.693-.173,8.483,8.483,0,0,1-2.405-.864,7.6,7.6,0,0,1-3.442-3.457,8.339,8.339,0,0,1-.792-2.391A17.428,17.428,0,0,1,.9,46.374c0-.3,0-1.311,0-1.311V10.482a17.284,17.284,0,0,1,.23-2.693,8.2,8.2,0,0,1,.778-2.42,7.288,7.288,0,0,1,1.44-2.016,7.95,7.95,0,0,1,2.016-1.44A8.339,8.339,0,0,1,7.756,1.12,17.428,17.428,0,0,1,10.463.89H161.1a17.082,17.082,0,0,1,2.665.23,8.527,8.527,0,0,1,2.42.792,7.907,7.907,0,0,1,3.471,3.457,8.526,8.526,0,0,1,.778,2.376,19.7,19.7,0,0,1,.245,2.708V46.374a18.9,18.9,0,0,1-.245,2.665,8.425,8.425,0,0,1-.778,2.405,7.806,7.806,0,0,1-1.44,2,7.475,7.475,0,0,1-2.016,1.44,8.152,8.152,0,0,1-2.405.893,16.29,16.29,0,0,1-2.679.23H11.76Z" transform="translate(0.396 0.392)"/><path class="d" d="M31.277,23.086a7.086,7.086,0,0,1,3.4-5.977A7.317,7.317,0,0,0,28.915,14c-2.405-.259-4.753,1.44-5.992,1.44S19.769,14,17.724,14a7.648,7.648,0,0,0-6.438,3.932C8.563,22.813,10.58,29.856,13.244,33.8c1.339,1.916,2.881,4.047,4.94,3.961S20.921,36.5,23.341,36.5s3.082,1.267,5.171,1.224,3.5-1.916,4.782-3.846a15.973,15.973,0,0,0,2.189-4.45,6.87,6.87,0,0,1-4.206-6.337" transform="translate(4.399 6.151)"/><path class="d" d="M23.431,13.747a7.043,7.043,0,0,0,1.6-5.027,7.2,7.2,0,0,0-4.623,2.391,6.7,6.7,0,0,0-1.642,4.839,5.92,5.92,0,0,0,4.667-2.2" transform="translate(8.256 3.839)"/><path class="d" d="M45.765,31.129H38.952l-1.642,4.839H34.43L40.882,18.08h3.01l6.452,17.888H47.465ZM39.658,28.9h5.4l-2.607-7.85H42.38Z" transform="translate(15.159 7.96)"/><path class="d" d="M58.916,28.026c0,4.047-2.175,6.654-5.444,6.654a4.45,4.45,0,0,1-4.1-2.333h0V38.8H46.63V21.516h2.593v2.189h0a4.638,4.638,0,0,1,4.162-2.3c3.313,0,5.487,2.607,5.487,6.654m-2.751,0c0-2.636-1.44-4.321-3.442-4.321s-3.428,1.772-3.428,4.321,1.44,4.393,3.428,4.393,3.442-1.728,3.442-4.393" transform="translate(20.531 9.421)"/><path class="d" d="M68.871,28.026c0,4.047-2.16,6.654-5.43,6.654a4.436,4.436,0,0,1-4.1-2.333h0V38.8H56.6V21.516h2.593v2.189h0a4.638,4.638,0,0,1,4.148-2.3c3.313,0,5.487,2.607,5.487,6.654m-2.751,0c0-2.636-1.354-4.321-3.442-4.321s-3.413,1.772-3.413,4.321,1.411,4.292,3.457,4.292,3.442-1.728,3.442-4.393" transform="translate(24.92 9.421)"/><path class="d" d="M72.547,31.055c.2,1.772,1.916,2.881,4.321,2.881s3.874-1.167,3.874-2.765-.979-2.218-3.3-2.794l-2.319-.562c-3.284-.792-4.8-2.319-4.8-4.811,0-3.1,2.679-5.214,6.5-5.214S83.2,19.907,83.291,23H80.54c-.158-1.786-1.642-2.881-3.788-2.881s-3.63,1.095-3.63,2.679c0,1.253.936,2,3.241,2.578l1.973.475c3.673.879,5.2,2.348,5.2,4.969,0,3.341-2.679,5.43-6.913,5.43-3.961,0-6.64-2.045-6.813-5.271Z" transform="translate(30.736 7.833)"/><path class="d" d="M84.755,19.3v3.082h2.477V24.5H84.755v7.2c0,1.123.49,1.642,1.584,1.642a7.2,7.2,0,0,0,.879,0v2.1a7.5,7.5,0,0,1-1.44.13c-2.65,0-3.673-.994-3.673-3.529V24.5H80.16V22.382h1.9V19.3Z" transform="translate(35.293 8.498)"/><path class="d" d="M86.07,28.043c0-4.1,2.405-6.683,6.179-6.683s6.179,2.578,6.179,6.683-2.376,6.64-6.179,6.64-6.179-2.564-6.179-6.64m9.636,0c0-2.809-1.3-4.479-3.457-4.479s-3.4,1.6-3.4,4.479,1.282,4.479,3.457,4.479,3.457-1.656,3.457-4.479" transform="translate(37.895 9.404)"/><path class="d" d="M96.19,21.472H98.8v2.247h0a3.111,3.111,0,0,1,3.14-2.348,3.716,3.716,0,0,1,.922.1v2.506a3.413,3.413,0,0,0-1.181-.259A2.708,2.708,0,0,0,98.8,26.786v7.734H96.19Z" transform="translate(42.351 9.408)"/><path class="d" d="M112.973,30.706c-.36,2.362-2.665,3.99-5.6,3.99-3.8,0-6.15-2.549-6.15-6.625s2.362-6.741,6.035-6.741,5.876,2.477,5.876,6.438v.907h-9.218v.173a3.4,3.4,0,0,0,3.514,3.687,2.953,2.953,0,0,0,3.01-1.829Zm-9.045-3.9h6.524a3.125,3.125,0,0,0-3.2-3.3,3.313,3.313,0,0,0-3.327,3.3" transform="translate(44.566 9.391)"/><path class="d" d="M38.781,8.733a3.8,3.8,0,0,1,4.033,4.321c0,2.737-1.44,4.321-4.033,4.321H35.67V8.733Zm-1.772,7.374h1.613A2.693,2.693,0,0,0,41.5,13.025a2.708,2.708,0,0,0-2.881-3.082H37.009Z" transform="translate(15.705 3.841)"/><path class="d" d="M41.682,13.442a3.068,3.068,0,1,1,6.121,0,3.068,3.068,0,1,1-6.121,0m4.8,0c0-1.44-.619-2.218-1.728-2.218s-1.743.821-1.743,2.218.576,2.247,1.743,2.247,1.728-.821,1.728-2.232" transform="translate(18.349 4.475)"/><path class="d" d="M53.771,16.681H52.446L51.107,11.9h-.1l-1.339,4.782H48.356L46.57,10.2h1.3l1.167,4.94h.086l1.339-4.94h1.224l1.339,4.94h.1l1.152-4.94h1.282Z" transform="translate(20.504 4.491)"/><path class="d" d="M53.863,10.228H55.1v1.037h.1a1.916,1.916,0,0,1,1.93-1.152,2.1,2.1,0,0,1,2.247,2.405v4.206H58.1V12.834c0-1.051-.461-1.57-1.44-1.57A1.44,1.44,0,0,0,55.1,12.906v3.817H53.82Z" transform="translate(23.696 4.449)"/><rect class="d" width="1.282" height="9.016" transform="translate(85.106 12.156)"/><path class="d" d="M61.222,13.442a3.068,3.068,0,1,1,6.121,0,3.068,3.068,0,1,1-6.121,0m4.8,0c0-1.44-.634-2.218-1.743-2.218s-1.728.821-1.728,2.218.619,2.247,1.728,2.247,1.743-.821,1.743-2.232" transform="translate(26.952 4.475)"/><path class="d" d="M66.4,14.882c0-1.167.864-1.829,2.42-1.93l1.757-.115v-.562c0-.677-.461-1.066-1.339-1.066s-1.21.259-1.339.72H66.645c.144-1.123,1.181-1.829,2.65-1.829s2.549.807,2.549,2.175v4.45H70.606V15.8h-.1a2.146,2.146,0,0,1-1.944,1.023,1.959,1.959,0,0,1-2.16-1.944m4.177-.6V13.73l-1.584.1c-.893,0-1.311.374-1.311.936s.519.922,1.21.922a1.527,1.527,0,0,0,1.685-1.44" transform="translate(29.235 4.447)"/><path class="d" d="M71.35,14.2c0-2.045,1.051-3.341,2.693-3.341A2.146,2.146,0,0,1,76.031,12h.086V8.44H77.4v9.016H76.175V16.448h-.1a2.247,2.247,0,0,1-2.031,1.123c-1.656,0-2.693-1.3-2.693-3.356m1.325,0c0,1.44.648,2.2,1.728,2.2s1.743-.835,1.743-2.189-.677-2.2-1.743-2.2-1.728.835-1.728,2.189" transform="translate(31.414 3.716)"/><path class="d" d="M79.232,13.442a3.068,3.068,0,1,1,6.121,0,3.068,3.068,0,1,1-6.121,0m4.8,0c0-1.44-.634-2.218-1.728-2.218s-1.743.821-1.743,2.218.619,2.247,1.743,2.247,1.728-.821,1.728-2.232" transform="translate(34.882 4.475)"/><path class="d" d="M84.679,10.227H85.9v1.037H86a1.959,1.959,0,0,1,1.944-1.152,2.1,2.1,0,0,1,2.232,2.405v4.206H88.913V12.834c0-1.051-.461-1.57-1.44-1.57a1.44,1.44,0,0,0-1.541,1.642v3.817H84.65Z" transform="translate(37.27 4.449)"/><path class="d" d="M94.229,9.07v1.656h1.44V11.85h-1.44v3.341c0,.677.274.979.907.979h.49v1.066a4.968,4.968,0,0,1-.691,0c-1.44,0-1.988-.5-1.988-1.743V11.85H91.91V10.784h1.037V9.07Z" transform="translate(40.467 3.993)"/><path class="d" d="M95.7,8.44h1.282v3.572h.1a1.973,1.973,0,0,1,1.93-1.167,2.132,2.132,0,0,1,2.232,2.42v4.191H99.963V13.567c0-1.037-.49-1.556-1.44-1.556a1.527,1.527,0,0,0-1.642,1.642v3.8H95.7Z" transform="translate(42.135 3.716)"/><path class="d" d="M106.568,14.964a2.621,2.621,0,0,1-2.881,1.872,2.881,2.881,0,0,1-3-3.341,3,3,0,0,1,3-3.385c1.8,0,2.881,1.224,2.881,3.269v.446h-4.58V13.9a1.7,1.7,0,0,0,1.8,1.815,1.584,1.584,0,0,0,1.556-.792Zm-4.494-2.132h3.269a1.57,1.57,0,0,0-1.6-1.685,1.656,1.656,0,0,0-1.671,1.685" transform="translate(44.316 4.451)"/></g></g></svg>