<svg xmlns="http://www.w3.org/2000/svg" viewBox="0 0 57.007 50"><defs><style>.a{fill:#fff;}</style></defs><g transform="translate(-6.179 -8.774)"><g transform="translate(6.179 8.774)"><path class="a" d="M120.26,119.612a1.2,1.2,0,1,0-2.406.045,81.577,81.577,0,0,1-.41,10.39,40.346,40.346,0,0,1-18.176,7.313l-2.66-7.123a25.319,25.319,0,0,0,13.853-6.678,1.2,1.2,0,0,0-1.18-2c-.538.16-1.254.44-2.012.736a23.452,23.452,0,0,1-2.372.843,56.773,56.773,0,0,1-13.115,1.56h-.019a56.784,56.784,0,0,1-13.115-1.56,23.465,23.465,0,0,1-2.372-.843c-.729-.285-1.42-.555-1.95-.717a1.239,1.239,0,0,0-1.356.405,1.2,1.2,0,0,0,.114,1.574,25.335,25.335,0,0,0,13.852,6.7l-2.658,7.1A40.351,40.351,0,0,1,66.1,130.047c-1.127-10.02-.068-26.093,3.634-35.474,3.393-1.541,8.378-1.979,13.059-2.166l-7.466,3.462a1.2,1.2,0,0,0,.835,2.233,55.136,55.136,0,0,1,31.22,0,1.2,1.2,0,0,0,.835-2.233l-7.466-3.462c4.682.187,9.666.625,13.059,2.166,2.025,5.131,3.259,12.264,3.777,19.313a1.2,1.2,0,0,0,1.2,1.112h0a1.2,1.2,0,0,0,1.2-1.293c-.547-7.467-1.9-15.018-4.141-20.466a1.2,1.2,0,0,0-.571-.614c-4.753-2.376-12.192-2.567-18.169-2.721-.731-.019-1.438-.037-2.111-.059a1.2,1.2,0,0,0-.541,2.28L98.1,93.812a56.15,56.15,0,0,0-12.649,0l3.639-1.688a1.2,1.2,0,0,0-.541-2.28c-.673.022-1.38.04-2.111.059-5.977.154-13.416.345-18.169,2.721a1.2,1.2,0,0,0-.571.614c-4.1,9.954-5.21,26.926-3.91,37.584a1.2,1.2,0,0,0,.436.786c6.141,4.951,14.844,7.7,20.744,8.231.036,0,.072,0,.108,0a1.2,1.2,0,0,0,1.119-.776l3.512-9.383a1.2,1.2,0,0,0-.344-1.33,1.245,1.245,0,0,0-.691-.282A25.627,25.627,0,0,1,81.1,126.1a58.665,58.665,0,0,0,10.666.99h.019a58.644,58.644,0,0,0,10.618-.981,25.788,25.788,0,0,1-7.522,1.941,1.25,1.25,0,0,0-.691.281,1.2,1.2,0,0,0-.346,1.33l3.512,9.4a1.2,1.2,0,0,0,1.119.777c.036,0,.072,0,.108,0,5.9-.53,14.6-3.28,20.744-8.231a1.2,1.2,0,0,0,.436-.786A82.87,82.87,0,0,0,120.26,119.612Z" transform="translate(-63.268 -89.844)"/></g><g transform="translate(15.951 22.587)"><path class="a" d="M136.919,183.242a7.572,7.572,0,1,0,7.572,7.572A7.581,7.581,0,0,0,136.919,183.242Zm0,12.753a5.181,5.181,0,1,1,5.181-5.181A5.187,5.187,0,0,1,136.919,196Z" transform="translate(-129.347 -183.242)"/></g><g transform="translate(38.269 22.587)"><path class="a" d="M287.825,183.242a7.572,7.572,0,1,0,7.572,7.572A7.581,7.581,0,0,0,287.825,183.242Zm0,12.753a5.181,5.181,0,1,1,5.181-5.181A5.187,5.187,0,0,1,287.825,196Z" transform="translate(-280.253 -183.242)"/></g></g></svg>