<svg xmlns="http://www.w3.org/2000/svg" viewBox="0 0 40.125 40"><defs><style>.a{fill:#5c9dd5;}</style></defs><g transform="translate(0 -0.8)"><g transform="translate(0 0.8)"><path class="a" d="M39.688,134.05a3.858,3.858,0,0,0-1.437-1.25l-3.625-1.812a1.03,1.03,0,0,1-.25-.687v-.437a4.848,4.848,0,0,0,1.25-3.312V125.3a3.713,3.713,0,0,0-6.375-2.625,3.5,3.5,0,0,0-1.125,2.625v1.25a4.963,4.963,0,0,0,1.25,3.313v.438a1.03,1.03,0,0,1-.25.688l-1.937.938L24,130.362a.888.888,0,0,1-.25-.687V127.55a6.794,6.794,0,0,0,1.875-4.25.863.863,0,0,0,.25-.187,1.5,1.5,0,0,0,.375-.937V119.05a6.25,6.25,0,1,0-12.5,0v3.125a1.234,1.234,0,0,0,.375.875c.063.063.188.125.25.188a6.65,6.65,0,0,0,1.875,4.25v2.188a.888.888,0,0,1-.25.688l-3.188,1.563-1.937-.937a1.03,1.03,0,0,1-.25-.687v-.437a4.848,4.848,0,0,0,1.25-3.312V125.3a3.5,3.5,0,0,0-1.125-2.625,3.5,3.5,0,0,0-2.625-1.125A3.5,3.5,0,0,0,5.5,122.675,3.5,3.5,0,0,0,4.375,125.3v1.25a4.963,4.963,0,0,0,1.25,3.313v.438a1.03,1.03,0,0,1-.25.688L1.75,132.8A3.61,3.61,0,0,0,.5,133.925a3.143,3.143,0,0,0-.5,1.688v1.938l.813.375a14.193,14.193,0,0,0,3.563,1.25,16.866,16.866,0,0,0,2.563.375v4.5h1.25v-5.625c0-2.75,1.938-3.687,4.625-5.062h.125V133.3l2.875-1.437a4.413,4.413,0,0,0,4.25,3.438,4.348,4.348,0,0,0,4.25-3.437l2.875,1.438v.063h.125c2.688,1.375,4.625,2.313,4.625,5.063v5.625h1.25v-4.437a16.866,16.866,0,0,0,2.563-.375,21.8,21.8,0,0,0,3.563-1.25l.813-.375v-1.937A3.712,3.712,0,0,0,39.688,134.05ZM5.625,125.3a2.27,2.27,0,0,1,.75-1.75,2.468,2.468,0,0,1,1.75-.75,2.365,2.365,0,0,1,1.75.75,2.468,2.468,0,0,1,.75,1.75v1.25c0,1.313-.75,3.125-2.5,3.125s-2.5-1.812-2.5-3.125Zm1.25,13.063a13.007,13.007,0,0,1-2.25-.375,14.422,14.422,0,0,1-3.25-1.187H1.25v-1.187a2.62,2.62,0,0,1,.25-1,1.59,1.59,0,0,1,.75-.687l3.625-1.812a1.96,1.96,0,0,0,.938-1.437,2.9,2.9,0,0,0,1.312.25,3.074,3.074,0,0,0,1.313-.25,2.1,2.1,0,0,0,.938,1.438l1.063.563C9,133.862,6.875,135.237,6.875,138.362Zm9.563-22.875A4.955,4.955,0,0,1,20,114.05a5.172,5.172,0,0,1,3.563,1.438A4.873,4.873,0,0,1,25,118.737a2.845,2.845,0,0,0-1.25-.312h-.625a.641.641,0,0,1-.625-.625.547.547,0,0,0-.375-.562.571.571,0,0,0-.687.125l-1.062,1.063H16.25a2.845,2.845,0,0,0-1.25.313A5,5,0,0,1,16.438,115.487Zm-.813,7.313a.59.59,0,0,0-.625-.625v-1.25a1.282,1.282,0,0,1,1.25-1.25h4.375a.567.567,0,0,0,.438-.187l.563-.562.187.188a1.8,1.8,0,0,0,1.313.563h.625a1.282,1.282,0,0,1,1.25,1.25v1.25a.59.59,0,0,0-.625.625c0,1.938-1.187,5-4.375,5S15.625,124.737,15.625,122.8ZM20,134.05a3.173,3.173,0,0,1-3.125-2.812,2.22,2.22,0,0,0,.625-1.562v-1.25a5.313,5.313,0,0,0,5,0v1.25a2.22,2.22,0,0,0,.625,1.563A3.173,3.173,0,0,1,20,134.05Zm9.375-8.75a2.27,2.27,0,0,1,.75-1.75,2.468,2.468,0,0,1,1.75-.75,2.365,2.365,0,0,1,1.75.75,2.468,2.468,0,0,1,.75,1.75v1.25c0,1.313-.75,3.125-2.5,3.125s-2.5-1.812-2.5-3.125Zm9.375,11.5-.125.063a15.621,15.621,0,0,1-3.25,1.188,14.089,14.089,0,0,1-2.25.375c0-3.125-2.125-4.5-4.562-5.75l1.063-.562a1.96,1.96,0,0,0,.938-1.437,2.9,2.9,0,0,0,1.313.25,3.074,3.074,0,0,0,1.312-.25,2.1,2.1,0,0,0,.938,1.438l3.625,1.813a1.59,1.59,0,0,1,.75.688,1.834,1.834,0,0,1,.25,1Z" transform="translate(0 -104.05)"/><rect class="a" width="1.25" height="3.75" transform="translate(11.875 36.25)"/><rect class="a" width="1.25" height="3.75" transform="translate(26.875 36.25)"/><rect class="a" width="1.25" height="1.25" transform="translate(28.75 10)"/><rect class="a" width="1.25" height="1.25" transform="translate(31.25 10)"/><rect class="a" width="1.25" height="1.25" transform="translate(33.75 10)"/><path class="a" d="M305.25,74.05H319v7.5h-1.875v1.625l-1.437-1.437a.567.567,0,0,0-.437-.187h-7.5V82.8H315l2.313,2.313a.567.567,0,0,0,.438.188.376.376,0,0,0,.25-.062.6.6,0,0,0,.375-.562V82.8h1.875v-10H304v3.125h1.25Z" transform="translate(-280.25 -67.175)"/><rect class="a" width="12.5" height="1.25" transform="translate(3.75 3.75)"/><rect class="a" width="12.5" height="1.25" transform="translate(3.75 6.25)"/><rect class="a" width="8.75" height="1.25" transform="translate(3.75 8.75)"/><path class="a" d="M1.875,16.425a.547.547,0,0,0,.375.563.376.376,0,0,0,.25.063.567.567,0,0,0,.438-.187L5.25,14.55H12.5V13.3H5a.567.567,0,0,0-.437.188L3.125,14.925V13.3H1.25V2.05h17.5V8.3H20V.8H0V14.55H1.875Z" transform="translate(0 -0.8)"/></g></g></svg>