<svg xmlns="http://www.w3.org/2000/svg" viewBox="0 0 52.59 60"><defs><style>.a{fill:#5c9dd5;}</style></defs><g transform="translate(-1.701)"><path class="a" d="M28,0A26.27,26.27,0,0,0,9.917,45.352L9.037,60l12.49-8.246A26.283,26.283,0,1,0,28,0ZM25.455,24.7A10.755,10.755,0,0,1,23.77,31.09a13.694,13.694,0,0,1-5.779,4.137l-2.058-3.9a10.074,10.074,0,0,0,3.48-2.352,4.782,4.782,0,0,0,1.073-2.772H15.933V17.363h9.522V24.7Zm14.6,0a10.755,10.755,0,0,1-1.685,6.393,13.657,13.657,0,0,1-5.779,4.137l-2.056-3.9a10.109,10.109,0,0,0,3.482-2.352,4.782,4.782,0,0,0,1.073-2.772H30.541V17.363h9.522l0,7.334Z" transform="translate(0)"/></g></svg>