<svg xmlns="http://www.w3.org/2000/svg" xmlns:xlink="http://www.w3.org/1999/xlink" width="135.447" height="124.851" viewBox="0 0 135.447 124.851"><defs><style>.a{fill:none;}.b{clip-path:url(#a);}.c{fill:#fff;}.d{fill:#e31337;}</style><clipPath id="a"><rect class="a" width="135.447" height="124.851"/></clipPath></defs><g class="b"><path class="c" d="M19.208,366.4v10.564H7.934V366.4H0v29.229H7.934v-11.4H19.208v11.4h7.934V366.4Zm24.636,29.229h7.829V366.4H43.844ZM88.732,366.4l-7.185,19.834L74.378,366.4H65.766v.376l11.483,28.854h8.612l11.483-28.854V366.4Zm22.444,0v29.229h24.271v-7.182H119.128V384.3h10.178v-6.681H119.128v-4.04h16.027V366.4Z" transform="translate(0 -270.778)"/><g class="b"><path class="d" d="M246.155,41.519a.365.365,0,0,1,.316.548L228.356,73.361a.365.365,0,0,1-.316.183H216.967a.365.365,0,0,1-.316-.548L234.766,41.7a.365.365,0,0,1,.316-.183Zm-10.77-8.97a.365.365,0,0,1-.316-.183L216.651.548A.365.365,0,0,1,216.967,0H228.04a.365.365,0,0,1,.316.183L246.773,32a.365.365,0,0,1-.316.548Z" transform="translate(-160.074)"/><path class="d" d="M149.216.548A.365.365,0,0,1,149.532,0h11.055a.365.365,0,0,1,.316.183l21.045,36.406a.365.365,0,0,1,0,.365L160.9,73.361a.365.365,0,0,1-.316.183H149.532a.365.365,0,0,1-.316-.548l20.933-36.224Zm-9.155,36.169a.371.371,0,0,1,0,.368L119.04,73.491a.368.368,0,0,1-.634,0l-21.254-36.4a.371.371,0,0,1,0-.368L118.173.313a.368.368,0,0,1,.634,0Z" transform="translate(-71.761)"/></g></g></svg>