<svg xmlns="http://www.w3.org/2000/svg" xmlns:xlink="http://www.w3.org/1999/xlink" width="195" height="58" viewBox="0 0 195 58"><defs><style>.a,.f{fill:none;}.b{clip-path:url(#a);}.c{fill:#070606;}.d{fill:#9b9792;}.e{fill:#fff;}.f{stroke:#fff;stroke-miterlimit:10;stroke-width:0.2px;}.g{clip-path:url(#d);}.h{fill:url(#e);}.i{clip-path:url(#f);}.j{fill:url(#g);}.k{clip-path:url(#h);}.l{fill:url(#i);}.m{clip-path:url(#j);}.n{fill:url(#k);}.o{opacity:0.2;}.o,.r,.u{isolation:isolate;}.p{clip-path:url(#m);}.q{fill:#010102;}.r{opacity:0.12;}.s{clip-path:url(#n);}.t{clip-path:url(#o);}.u{opacity:0.25;}.v{clip-path:url(#p);}</style><clipPath id="a"><rect class="a" width="195" height="58" transform="translate(-0.237 0)"/></clipPath><clipPath id="d"><path class="a" d="M10.636,7.571A2.881,2.881,0,0,0,10,9.587V41.446a2.881,2.881,0,0,0,.677,2.016l.1.115,17.8-17.845V25.3L10.737,7.47Z" transform="translate(-9.995 -7.47)"/></clipPath><linearGradient id="e" x1="-6.895" y1="7.677" x2="-6.858" y2="7.677" gradientUnits="objectBoundingBox"><stop offset="0" stop-color="#4e8abf"/><stop offset="0.01" stop-color="#4e8cc0"/><stop offset="0.26" stop-color="#50bbd7"/><stop offset="0.51" stop-color="#61c4da"/><stop offset="0.76" stop-color="#70c9d5"/><stop offset="1" stop-color="#75cbd3"/></linearGradient><clipPath id="f"><path class="a" d="M22.9,21.668V22.1l5.905,5.948.13-.072,7.072-4c2.016-1.152,2.016-3.025,0-4.162l-7.043-4-.158-.086Z" transform="translate(-22.9 -15.72)"/></clipPath><linearGradient id="g" x1="-19.464" y1="23.768" x2="-19.369" y2="23.768" gradientUnits="objectBoundingBox"><stop offset="0" stop-color="#faec1a"/><stop offset="0.41" stop-color="#ffb911"/><stop offset="0.78" stop-color="#ff970b"/><stop offset="1" stop-color="#ff8a08"/></linearGradient><clipPath id="h"><path class="a" d="M10.44,37.946a2.333,2.333,0,0,0,2.981.1L34.464,26.092,28.386,20Z" transform="translate(-10.44 -20)"/></clipPath><linearGradient id="i" x1="-8.946" y1="9.383" x2="-8.898" y2="9.383" gradientUnits="objectBoundingBox"><stop offset="0" stop-color="#fb1f27"/><stop offset="1" stop-color="#c50a5a"/></linearGradient><clipPath id="j"><path class="a" d="M10.462,7.717,28.408,25.663l6.078-6.078L13.443,7.631a3.284,3.284,0,0,0-1.613-.49,1.815,1.815,0,0,0-1.44.576" transform="translate(-10.39 -7.138)"/></clipPath><linearGradient id="k" x1="-8.635" y1="9.239" x2="-8.587" y2="9.239" gradientUnits="objectBoundingBox"><stop offset="0" stop-color="#409559"/><stop offset="0.07" stop-color="#429f5b"/><stop offset="0.48" stop-color="#57b452"/><stop offset="0.8" stop-color="#65bb50"/><stop offset="1" stop-color="#6abd51"/></linearGradient><clipPath id="m"><rect class="a" width="24.038" height="12.574"/></clipPath><clipPath id="n"><rect class="a" width="0.778" height="2.232"/></clipPath><clipPath id="o"><rect class="a" width="8.685" height="6.078"/></clipPath><clipPath id="p"><rect class="a" width="33.256" height="18.522"/></clipPath></defs><g transform="translate(0.237)"><g transform="translate(0 0)"><g class="b"><g class="b"><g class="b"><path class="c" d="M187.237,57.611H7.2A7.2,7.2,0,0,1,0,50.41V7.2A7.2,7.2,0,0,1,7.2,0H187.237a7.2,7.2,0,0,1,7.2,7.2V50.41a7.2,7.2,0,0,1-7.2,7.2"/><path class="d" d="M187.237,1.152A6.049,6.049,0,0,1,193.286,7.2V50.41a6.064,6.064,0,0,1-6.049,6.049H7.2A6.064,6.064,0,0,1,1.152,50.41V7.2A6.049,6.049,0,0,1,7.2,1.152H187.237m0-1.152H7.2A7.2,7.2,0,0,0,0,7.2V50.41a7.2,7.2,0,0,0,7.2,7.2H187.237a7.2,7.2,0,0,0,7.2-7.2V7.2a7.2,7.2,0,0,0-7.2-7.2"/><path class="e" d="M50.093,11.724a3.918,3.918,0,0,1-1.08,2.881,4.177,4.177,0,0,1-3.169,1.267,4.451,4.451,0,0,1-4.494-4.494,4.321,4.321,0,0,1,1.311-3.212,4.551,4.551,0,0,1,4.955-.936A3.658,3.658,0,0,1,48.97,8.2l-.763.763a2.881,2.881,0,0,0-2.362-1.037,3.341,3.341,0,0,0-3.356,3.457,3.347,3.347,0,0,0,3.356,3.457,3.341,3.341,0,0,0,2.42-.965,2.765,2.765,0,0,0,.72-1.757h-3.14V11.076h4.191a5.4,5.4,0,0,1,0,.648" transform="translate(18.205 3.025)"/><path class="f" d="M50.093,11.724a3.918,3.918,0,0,1-1.08,2.881,4.177,4.177,0,0,1-3.169,1.267,4.451,4.451,0,0,1-4.494-4.494,4.321,4.321,0,0,1,1.311-3.212,4.551,4.551,0,0,1,4.955-.936A3.658,3.658,0,0,1,48.97,8.2l-.763.763a2.881,2.881,0,0,0-2.362-1.037,3.341,3.341,0,0,0-3.356,3.457,3.347,3.347,0,0,0,3.356,3.457,3.341,3.341,0,0,0,2.42-.965,2.765,2.765,0,0,0,.72-1.757h-3.14V11.076h4.191A5.4,5.4,0,0,1,50.093,11.724Z" transform="translate(18.205 3.025)"/><path class="e" d="M56.131,9.266H52.2V12h3.543v1.037H52.2V15.79h3.932v1.051H51.09V8.2h5.041Z" transform="translate(18.807 1.882)"/><path class="f" d="M56.131,9.266H52.2V12h3.543v1.037H52.2V15.79h3.932v1.051H51.09V8.2h5.041Z" transform="translate(18.807 1.882)"/><path class="e" d="M58.919,16.842H57.81V9.266H55.39V8.2h5.948V9.266h-2.42Z" transform="translate(20.7 1.882)"/><path class="f" d="M58.919,16.842H57.81V9.266H55.39V8.2h5.948V9.266h-2.42Z" transform="translate(20.7 1.882)"/><rect class="e" width="1.109" height="8.642" transform="translate(86.331 10.082)"/><rect class="f" width="1.109" height="8.642" transform="translate(86.331 10.082)"/><path class="e" d="M67.769,16.842H66.66V9.266H64.24V8.2h5.948V9.266h-2.42Z" transform="translate(24.597 1.882)"/><path class="f" d="M67.769,16.842H66.66V9.266H64.24V8.2h5.948V9.266h-2.42Z" transform="translate(24.597 1.882)"/><path class="e" d="M75.935,14.576a4.479,4.479,0,0,1-6.337,0,4.321,4.321,0,0,1-1.267-3.2,4.321,4.321,0,0,1,1.267-3.2,4.465,4.465,0,0,1,6.323,0,4.321,4.321,0,0,1,1.282,3.2,4.321,4.321,0,0,1-1.267,3.2m-5.516-.72a3.3,3.3,0,0,0,4.7,0,3.4,3.4,0,0,0,.965-2.477A3.4,3.4,0,0,0,75.057,8.9a3.3,3.3,0,0,0-4.7,0,3.4,3.4,0,0,0-.907,2.477,3.4,3.4,0,0,0,.965,2.477" transform="translate(30.084 3.024)"/><path class="f" d="M75.935,14.576a4.479,4.479,0,0,1-6.337,0,4.321,4.321,0,0,1-1.267-3.2,4.321,4.321,0,0,1,1.267-3.2,4.465,4.465,0,0,1,6.323,0,4.321,4.321,0,0,1,1.282,3.2,4.321,4.321,0,0,1-1.267,3.2Zm-5.516-.72a3.3,3.3,0,0,0,4.7,0,3.4,3.4,0,0,0,.965-2.477A3.4,3.4,0,0,0,75.057,8.9a3.3,3.3,0,0,0-4.7,0,3.4,3.4,0,0,0-.907,2.477A3.4,3.4,0,0,0,70.419,13.856Z" transform="translate(30.084 3.024)"/><path class="e" d="M78.14,16.842V8.2h1.354l4.191,6.726h.058l-.058-1.671V8.2h1.109v8.642H83.642L79.249,9.8h-.058l.058,1.671v5.372Z" transform="translate(30.717 1.882)"/><path class="f" d="M78.14,16.842V8.2h1.354l4.191,6.726h.058l-.058-1.671V8.2h1.109v8.642H83.642L79.249,9.8h-.058l.058,1.671v5.372Z" transform="translate(30.717 1.882)"/><path class="e" d="M80.145,23.822a6.136,6.136,0,1,0,6.136,6.121,6.035,6.035,0,0,0-6.136-6.136m0,9.837a3.716,3.716,0,1,1,3.457-3.7,3.543,3.543,0,0,1-3.457,3.7M66.722,23.807a6.136,6.136,0,1,0,6.15,6.136,6.049,6.049,0,0,0-6.15-6.136m0,9.837a3.716,3.716,0,1,1,3.457-3.7,3.543,3.543,0,0,1-3.457,3.7M50.763,25.708V28.3h6.222a5.43,5.43,0,0,1-1.44,3.269,6.366,6.366,0,0,1-4.811,1.9,6.913,6.913,0,1,1,0-13.827A6.683,6.683,0,0,1,55.459,21.5l1.829-1.829a9.074,9.074,0,0,0-6.524-2.621,9.52,9.52,0,1,0,0,19.026,8.429,8.429,0,0,0,8.887-8.757,9.031,9.031,0,0,0-.13-1.613Zm65.259,2.016a5.66,5.66,0,0,0-11,2.232,5.992,5.992,0,0,0,6.078,6.121,6.078,6.078,0,0,0,5.1-2.722l-2.088-1.44A3.5,3.5,0,0,1,111.1,33.6a3.1,3.1,0,0,1-2.967-1.858l8.181-3.385Zm-8.354,2.045a3.356,3.356,0,0,1,3.2-3.572,2.362,2.362,0,0,1,2.276,1.3ZM101.015,35.7h2.693v-18h-2.693ZM96.608,25.19h-.1a4.234,4.234,0,0,0-3.226-1.368,6.136,6.136,0,0,0,0,12.257,4.148,4.148,0,0,0,3.226-1.44h.1v.879a3.14,3.14,0,0,1-3.284,3.6,3.385,3.385,0,0,1-3.082-2.175l-2.333.965a5.761,5.761,0,0,0,5.415,3.63c3.169,0,5.761-1.858,5.761-6.38V24.182H96.608Zm-3.1,8.469a3.716,3.716,0,0,1,0-7.417,3.442,3.442,0,0,1,3.284,3.7,3.428,3.428,0,0,1-3.284,3.687M128.64,17.7h-6.452v18h2.693V28.877h3.759a5.6,5.6,0,1,0,0-11.177m0,8.642h-3.759V20.206H128.7a3.082,3.082,0,1,1,0,6.164m16.621-2.578a5.027,5.027,0,0,0-4.8,2.751l2.376.994a2.564,2.564,0,0,1,2.463-1.311,2.593,2.593,0,0,1,2.881,2.3v.187a6.021,6.021,0,0,0-2.809-.691c-2.564,0-5.185,1.44-5.185,4.062a4.162,4.162,0,0,0,4.465,3.961,3.846,3.846,0,0,0,3.385-1.786h.086V35.7h2.593V28.776c0-3.2-2.391-4.983-5.459-4.983m-.331,9.866c-.879,0-2.1-.446-2.1-1.527,0-1.44,1.527-1.93,2.881-1.93a4.825,4.825,0,0,1,2.448.6,3.255,3.255,0,0,1-3.2,2.881m15.209-9.506-3.082,7.806h-.086l-3.2-7.806h-2.881l4.8,10.917-2.737,6.064h2.881l7.3-16.981ZM136.028,35.7h2.679v-18h-2.679Z" transform="translate(17.996 7.505)"/></g><g class="g" transform="translate(14.396 10.759)"><rect class="h" width="38.7" height="38.7" transform="translate(-18.087 18.053) rotate(-45)"/></g><g class="i" transform="translate(32.983 22.641)"><rect class="j" width="15.137" height="12.314" transform="translate(0 0.014)"/></g><g class="k" transform="translate(15.037 28.806)"><rect class="l" width="30.246" height="30.246" transform="translate(-9.368 9.385) rotate(-45)"/></g><g class="m" transform="translate(14.965 10.28)"><rect class="n" width="30.088" height="30.088" transform="translate(-9.194 9.273) rotate(-45)"/></g><g class="b"><g class="o" transform="translate(15.037 34.754)"><g class="p"><path class="q" d="M34.3,24.13,13.426,36.012a2.391,2.391,0,0,1-2.881,0l-.115.1.115.115h0a2.391,2.391,0,0,0,2.881,0L34.468,24.26Z" transform="translate(-10.444 -24.13)"/></g></g><g class="r" transform="translate(14.36 44.519)"><g class="s"><path class="q" d="M10.622,32.941A2.881,2.881,0,0,1,10,30.91v.216a2.881,2.881,0,0,0,.663,2.016l.115-.1Z" transform="translate(-9.96 -30.91)"/></g></g><g class="r" transform="translate(38.931 28.806)"><g class="t" transform="translate(0 0)"><path class="q" d="M34.2,21.872,27,25.948l.13.13,7.072-4A2.521,2.521,0,0,0,35.728,20,2.679,2.679,0,0,1,34.2,21.872" transform="translate(-27.043 -20)"/></g></g><g class="u" transform="translate(14.36 10.284)"><g class="v"><path class="e" d="M13.615,7.831,41.686,23.79a2.679,2.679,0,0,1,1.527,1.872,2.52,2.52,0,0,0-1.527-2.074L13.615,7.63c-2-1.152-3.615-.2-3.615,2.1v.216c0-2.3,1.656-3.255,3.658-2.117" transform="translate(-9.957 -7.14)"/></g></g></g></g></g></g></g></svg>