<svg xmlns="http://www.w3.org/2000/svg" width="60.332" height="70.508" viewBox="0 0 60.332 70.508"><defs><style>.a{fill:#fff;opacity:0.68;}</style></defs><path class="a" d="M58.421,17.708l1.83,5.248a1.455,1.455,0,0,1,.033.849l-.075.285L60,24.895l-.756,2.875c-.782,2.975-1.563,5.951-2.293,8.733-1.8,6.866-2.982,11.386-3.266,12.512-1.548,6.132-2.775,8.261-6.744,11.064-3.477,2.456-10.732,7.385-12.127,8.26-.133.084-.281.181-.476.314l-.55.376a11.9,11.9,0,0,1-1.683,1,4.137,4.137,0,0,1-3.871,0,11.9,11.9,0,0,1-1.683-1L26,68.653c-.2-.133-.343-.23-.476-.314-1.395-.875-8.65-5.8-12.127-8.26-3.969-2.8-5.2-4.932-6.744-11.064C6.365,47.888,5.184,43.368,3.4,36.553c-.743-2.831-1.524-5.808-2.306-8.783L.335,24.895.123,24.09.048,23.8a1.455,1.455,0,0,1,.033-.849l1.83-5.248L.538,14.325A1.454,1.454,0,0,1,.82,12.788l.358-.382c.286-.3.609-.646.965-1.019C3.159,10.321,4.23,9.219,5.306,8.139A6.607,6.607,0,0,1,9.342,6.357a13.466,13.466,0,0,1,3.871.158l.205.037L18.741.492A1.446,1.446,0,0,1,19.827,0H40.5a1.446,1.446,0,0,1,1.087.492l5.322,6.061.205-.037a13.466,13.466,0,0,1,3.871-.158,6.607,6.607,0,0,1,4.037,1.782c1.076,1.08,2.147,2.182,3.163,3.248.356.373.68.715.965,1.019l.264.282a1.515,1.515,0,0,1,.376,1.637Zm-2.914.44a1.455,1.455,0,0,1,.026-1.026l1.229-3.028q-.309-.327-.665-.7c-1-1.051-2.059-2.139-3.119-3.2a3.842,3.842,0,0,0-2.325-.95,10.7,10.7,0,0,0-3.034.135c-.235.041-.448.085-.635.129-.106.025-.176.043-.2.05A1.446,1.446,0,0,1,45.3,9.115L39.85,2.9H20.482L15.027,9.115a1.446,1.446,0,0,1-1.475.439c-.028-.008-.1-.026-.2-.05-.187-.044-.4-.088-.635-.129A10.7,10.7,0,0,0,9.68,9.241a3.842,3.842,0,0,0-2.325.95c-1.06,1.064-2.116,2.151-3.119,3.2q-.355.372-.665.7L4.8,17.122a1.455,1.455,0,0,1,.026,1.026L2.961,23.494l.174.661.756,2.875c.782,2.975,1.564,5.952,2.293,8.734,1.806,6.883,2.985,11.4,3.273,12.538,1.392,5.517,2.279,7.054,5.6,9.4,3.437,2.428,10.655,7.331,12,8.172.169.106.343.221.565.372l.549.375a9.465,9.465,0,0,0,1.282.771,1.839,1.839,0,0,0,.713.209,1.839,1.839,0,0,0,.713-.209,9.466,9.466,0,0,0,1.282-.771l.549-.375c.222-.151.4-.266.565-.372,1.341-.841,8.558-5.744,12-8.172,3.326-2.349,4.212-3.886,5.6-9.4.288-1.14,1.467-5.655,3.26-12.488.743-2.832,1.525-5.809,2.307-8.784l.756-2.875.174-.661ZM44.74,12.408s7.572,9.189,7.572,11.153-.953,2.482-1.91,3.5l-5.678,6.052c-.537.573-1.655,1.441-1,3s1.628,3.551.549,5.568-2.928,3.363-4.113,3.14a21.636,21.636,0,0,1-4.99-2.349c-1.023-.667-4.266-3.351-4.266-4.378s3.352-2.871,3.971-3.29,3.444-2.041,3.5-2.677.036-.823-.8-2.4-2.335-3.672-2.085-5.068,2.671-2.123,4.4-2.778S44.95,20,45.365,19.808s.308-.376-.951-.5-4.83-.6-6.441-.145-4.362,1.136-4.584,1.5-.419.376-.191,1.63,1.407,7.271,1.521,8.34.338,1.775-.81,2.039a28.713,28.713,0,0,1-3.745.721,28.708,28.708,0,0,1-3.745-.721c-1.148-.263-.924-.97-.81-2.039S26.9,23.55,27.132,22.3s.032-1.266-.191-1.63-2.974-1.049-4.585-1.5-5.182.025-6.441.145-1.366.3-.951.5,3.742,1.429,5.469,2.084,4.149,1.381,4.4,2.778-1.251,3.5-2.085,5.068-.856,1.759-.8,2.4,2.882,2.258,3.5,2.677,3.971,2.263,3.971,3.29-3.242,3.712-4.265,4.378a21.636,21.636,0,0,1-4.99,2.349c-1.185.223-3.033-1.124-4.113-3.14s-.109-4.005.549-5.568-.46-2.431-1-3L9.929,27.064c-.958-1.021-1.91-1.539-1.91-3.5s7.572-11.153,7.572-11.153,6.39,1.225,7.251,1.225a22.407,22.407,0,0,0,4.451-1.3,10.136,10.136,0,0,1,2.872-.581,10.136,10.136,0,0,1,2.872.581,22.407,22.407,0,0,0,4.451,1.3C38.35,13.633,44.74,12.408,44.74,12.408ZM39.063,47.557c.469.295.183.85-.244,1.153s-6.165,4.763-6.722,5.256-1.375,1.307-1.932,1.307-1.375-.814-1.932-1.307-6.295-4.953-6.722-5.256-.713-.858-.244-1.153,1.935-1.038,3.959-2.089a22.96,22.96,0,0,1,4.939-1.945A22.966,22.966,0,0,1,35.1,45.468C37.128,46.519,38.595,47.263,39.063,47.557Z" transform="translate(0 0)"/></svg>