<svg xmlns="http://www.w3.org/2000/svg" width="60.203" height="60.203" viewBox="0 0 60.203 60.203"><defs><style>.a{opacity:0.68;}.b{fill:#fff;}</style></defs><g class="a"><ellipse class="b" cx="9.951" cy="9.951" rx="9.951" ry="9.951" transform="translate(20.397 20.397)"/><path class="b" d="M71.286,27.21A13.545,13.545,0,0,1,84.5,16.579h26.91a30.118,30.118,0,0,0-48.2-7.763q-.82.82-1.568,1.691Z" transform="translate(-54.395)"/><path class="b" d="M34.2,144.783a13.52,13.52,0,0,1-15.848-6.193c-.017-.026-.033-.051-.049-.078L4.94,115.36a30.119,30.119,0,0,0,19.617,46.13Z" transform="translate(0 -101.795)"/><path class="b" d="M252.073,171a13.5,13.5,0,0,1,2.571,16.82c-.012.023-.022.046-.035.069l-13.369,23.157c.576.032,1.154.051,1.736.051A30.138,30.138,0,0,0,271.384,171Z" transform="translate(-212.873 -150.893)"/></g></svg>