<svg xmlns="http://www.w3.org/2000/svg" viewBox="0 0 76.238 76.238"><defs><style>.a{fill:#f44336;}.b{fill:#ffc107;}.c{fill:#4caf50;}.d{fill:#2196f3;}.e{fill:#fafafa;}</style></defs><path class="a" d="M119.035,23.826H83.712A14.294,14.294,0,0,0,71.229,45.109l-17.661-30.3a38.1,38.1,0,0,1,65.467,9.021Z" transform="translate(-45.592 0)"/><path class="b" d="M266.9,174.315a38.149,38.149,0,0,1-38.117,38.117,34,34,0,0,1-4.765-.318l17.153-30.653a14.329,14.329,0,0,0-5.241-19.535,14.161,14.161,0,0,0-7.115-1.906h35.29A37.582,37.582,0,0,1,266.9,174.315Z" transform="translate(-190.665 -136.194)"/><path class="c" d="M50.509,129.9,33.356,160.549h-.032A38.1,38.1,0,0,1,7.977,99.434l17.661,30.3.1.159a14.294,14.294,0,0,0,24.776,0Z" transform="translate(-0.001 -84.629)"/><path class="a" d="M186.608,181.461a14.294,14.294,0,0,1-24.776,0l-.1-.159A14.294,14.294,0,0,1,174.22,160.02h.032a14.161,14.161,0,0,1,7.115,1.906A14.329,14.329,0,0,1,186.608,181.461Z" transform="translate(-136.099 -136.194)"/><path class="d" d="M186.608,181.461a14.294,14.294,0,0,1-24.776,0l-.1-.159A14.294,14.294,0,0,1,174.22,160.02h.032a14.161,14.161,0,0,1,7.115,1.906A14.329,14.329,0,0,1,186.608,181.461Z" transform="translate(-136.099 -136.194)"/><path class="e" d="M165.116,181.119A15.768,15.768,0,0,1,157.229,179a15.9,15.9,0,1,1,21.708-5.826h0A15.971,15.971,0,0,1,165.116,181.119Zm.082-28.588a12.712,12.712,0,1,0,10.981,19.059h0A12.706,12.706,0,0,0,165.2,152.531h0Z" transform="translate(-127.049 -127.117)"/></svg>