<svg xmlns="http://www.w3.org/2000/svg" xmlns:xlink="http://www.w3.org/1999/xlink" viewBox="0 0 73.843 76.215"><defs><style>.a{fill:url(#a);}.b{fill:url(#b);}.c{fill:url(#c);}.d{fill:url(#d);}.e{fill:url(#e);}.f{fill:url(#f);}.g{fill:url(#g);}.h{fill:url(#h);}.i{fill:url(#i);}.j{fill:url(#j);}.k{fill:url(#k);}.l{fill:url(#l);}.m{fill:url(#m);}.n{fill:url(#n);}</style><radialGradient id="a" cx="793.454" cy="105.535" fx="791.2265879075676" r="9.666" gradientTransform="matrix(2.753, 0.123, -0.181, 4.046, -19.874, -38.033)" gradientUnits="userSpaceOnUse"><stop offset="0.045" stop-color="#ffea00"/><stop offset="0.12" stop-color="#ffde00"/><stop offset="0.254" stop-color="#ffbf00"/><stop offset="0.429" stop-color="#ff8e00"/><stop offset="0.769" stop-color="#ff272d"/><stop offset="0.872" stop-color="#e0255a"/><stop offset="0.953" stop-color="#cc2477"/><stop offset="1" stop-color="#c42482"/></radialGradient><radialGradient id="b" cx="118.327" cy="93.146" r="74.675" gradientTransform="translate(-0.26 -0.046) scale(1.005 1.005)" gradientUnits="userSpaceOnUse"><stop offset="0" stop-color="#00ccda"/><stop offset="0.22" stop-color="#0083ff"/><stop offset="0.261" stop-color="#007af9"/><stop offset="0.33" stop-color="#0060e8"/><stop offset="0.333" stop-color="#005fe7"/><stop offset="0.438" stop-color="#2639ad"/><stop offset="0.522" stop-color="#401e84"/><stop offset="0.566" stop-color="#4a1475"/></radialGradient><linearGradient id="c" x1="0.573" y1="0.752" x2="0.351" y2="0.068" gradientUnits="objectBoundingBox"><stop offset="0" stop-color="#000f43" stop-opacity="0.4"/><stop offset="0.485" stop-color="#001962" stop-opacity="0.173"/><stop offset="1" stop-color="#002079" stop-opacity="0"/></linearGradient><radialGradient id="d" cx="746.809" cy="675.488" r="27.43" gradientTransform="matrix(0.919, 0.093, -0.093, 0.919, 1.622, -2.446)" gradientUnits="userSpaceOnUse"><stop offset="0.003" stop-color="#ffea00"/><stop offset="0.497" stop-color="#ff272d"/><stop offset="1" stop-color="#c42482"/></radialGradient><radialGradient id="e" cx="878.848" cy="429.373" r="22.901" gradientTransform="matrix(1.837, 0.185, -0.185, 1.837, -12.274, 5.163)" gradientUnits="userSpaceOnUse"><stop offset="0.003" stop-color="#ffe900"/><stop offset="0.157" stop-color="#ffaf0e"/><stop offset="0.316" stop-color="#ff7a1b"/><stop offset="0.472" stop-color="#ff4e26"/><stop offset="0.621" stop-color="#ff2c2e"/><stop offset="0.762" stop-color="#ff1434"/><stop offset="0.892" stop-color="#ff0538"/><stop offset="1" stop-color="#ff0039"/></radialGradient><radialGradient id="f" cx="569.494" cy="831.266" r="72.748" gradientTransform="matrix(0.531, 0.054, -0.054, 0.531, 19.169, -2.083)" gradientUnits="userSpaceOnUse"><stop offset="0.003" stop-color="#ff272d"/><stop offset="0.497" stop-color="#c42482"/><stop offset="0.986" stop-color="#620700"/></radialGradient><radialGradient id="g" cx="90.395" cy="45.436" fx="92.5616932442208" fy="44.36485165040017" r="58.128" gradientTransform="translate(-2.34 -1.243) scale(1.042 1.042)" gradientUnits="userSpaceOnUse"><stop offset="0.156" stop-color="#ffea00"/><stop offset="0.231" stop-color="#ffde00"/><stop offset="0.365" stop-color="#ffbf00"/><stop offset="0.541" stop-color="#ff8e00"/><stop offset="0.763" stop-color="#ff272d"/><stop offset="0.796" stop-color="#f92433"/><stop offset="0.841" stop-color="#e91c45"/><stop offset="0.893" stop-color="#cf0e62"/><stop offset="0.935" stop-color="#b5007f"/></radialGradient><radialGradient id="h" cx="606.227" cy="2.1" r="28.364" gradientTransform="translate(-10.877 -0.152) scale(2.522 2.522)" gradientUnits="userSpaceOnUse"><stop offset="0.279" stop-color="#ffea00"/><stop offset="0.402" stop-color="#fd0"/><stop offset="0.63" stop-color="#ffba00"/><stop offset="0.856" stop-color="#ff9100"/><stop offset="0.933" stop-color="#ff6711"/><stop offset="0.994" stop-color="#ff4a1d"/></radialGradient><linearGradient id="i" x1="-69.206" y1="-45.201" x2="-67.095" y2="-45.673" gradientUnits="objectBoundingBox"><stop offset="0" stop-color="#c42482" stop-opacity="0.502"/><stop offset="0.474" stop-color="#ff272d" stop-opacity="0.502"/><stop offset="0.486" stop-color="#ff2c2c" stop-opacity="0.514"/><stop offset="0.675" stop-color="#ff7a1a" stop-opacity="0.722"/><stop offset="0.829" stop-color="#ffb20d" stop-opacity="0.871"/><stop offset="0.942" stop-color="#ffd605" stop-opacity="0.965"/><stop offset="1" stop-color="#ffe302"/></linearGradient><linearGradient id="j" x1="1.177" y1="-7.361" x2="0.677" y2="-8.226" gradientUnits="objectBoundingBox"><stop offset="0" stop-color="#891551" stop-opacity="0.6"/><stop offset="1" stop-color="#c42482" stop-opacity="0"/></linearGradient><linearGradient id="k" x1="-1.042" y1="0.949" x2="-0.589" y2="1.329" gradientUnits="objectBoundingBox"><stop offset="0.005" stop-color="#891551" stop-opacity="0.502"/><stop offset="0.484" stop-color="#ff272d" stop-opacity="0.502"/><stop offset="1" stop-color="#ff272d" stop-opacity="0"/></linearGradient><linearGradient id="l" x1="-0.234" y1="3.229" x2="-0.234" y2="2.516" gradientUnits="objectBoundingBox"><stop offset="0" stop-color="#c42482"/><stop offset="0.083" stop-color="#c42482" stop-opacity="0.812"/><stop offset="0.206" stop-color="#c42482" stop-opacity="0.565"/><stop offset="0.328" stop-color="#c42482" stop-opacity="0.361"/><stop offset="0.447" stop-color="#c42482" stop-opacity="0.204"/><stop offset="0.562" stop-color="#c42482" stop-opacity="0.09"/><stop offset="0.673" stop-color="#c42482" stop-opacity="0.024"/><stop offset="0.773" stop-color="#c42482" stop-opacity="0"/></linearGradient><linearGradient id="m" x1="0.063" y1="0.016" x2="0.924" y2="0.895" gradientUnits="objectBoundingBox"><stop offset="0" stop-color="#fff14f"/><stop offset="0.268" stop-color="#ffee4c"/><stop offset="0.452" stop-color="#ffe643"/><stop offset="0.612" stop-color="#ffd834"/><stop offset="0.757" stop-color="#ffc41e"/><stop offset="0.892" stop-color="#ffab02"/><stop offset="0.902" stop-color="#ffa900"/><stop offset="0.949" stop-color="#ffa000"/><stop offset="1" stop-color="#ff9100"/></linearGradient><linearGradient id="n" x1="0.718" y1="0.072" x2="0.427" y2="0.819" gradientUnits="objectBoundingBox"><stop offset="0" stop-color="#ff8e00"/><stop offset="0.04" stop-color="#ff8e00" stop-opacity="0.859"/><stop offset="0.084" stop-color="#ff8e00" stop-opacity="0.729"/><stop offset="0.13" stop-color="#ff8e00" stop-opacity="0.627"/><stop offset="0.178" stop-color="#ff8e00" stop-opacity="0.557"/><stop offset="0.227" stop-color="#ff8e00" stop-opacity="0.514"/><stop offset="0.282" stop-color="#ff8e00" stop-opacity="0.502"/><stop offset="0.389" stop-color="#ff8e00" stop-opacity="0.478"/><stop offset="0.524" stop-color="#ff8e00" stop-opacity="0.416"/><stop offset="0.676" stop-color="#ff8e00" stop-opacity="0.314"/><stop offset="0.838" stop-color="#ff8e00" stop-opacity="0.173"/><stop offset="1" stop-color="#ff8e00" stop-opacity="0"/></linearGradient></defs><path class="a" d="M782.773,93.558c-1.855,2.16-2.719,7.02-.838,11.948s4.763,3.857,6.56,8.882c2.372,6.63,1.268,15.537,1.268,15.537s2.851,8.257,4.839-.514C799,112.936,782.773,97.615,782.773,93.558Z" transform="translate(-723.111 -86.466)"/><path class="b" d="M103.994,153.677A34.547,34.547,0,1,0,69.649,119.13,34.463,34.463,0,0,0,103.994,153.677Z" transform="translate(-66.965 -78.187)"/><path class="c" d="M140.289,101.765a19.122,19.122,0,0,1-2.333,1.408,54.524,54.524,0,0,0,2.967-4.877,19.143,19.143,0,0,0,1.951-2.452c.266-.419.566-.936.884-1.535a33.141,33.141,0,0,0,4.119-14.887v-.014c0-.142,0-.285,0-.427a19.952,19.952,0,0,0-.442-4.318c.015.111.029.222.043.332-.017-.085-.032-.171-.05-.257.028.158.051.31.076.463.395,3.347.114,6.612-1.292,9.02-.022.035-.045.068-.067.1a30.027,30.027,0,0,0,.162-11.742s-.324-1.966-2.74-7.935a24.4,24.4,0,0,0-6.041-8.3,65.978,65.978,0,0,0-4.607-4.962,13.356,13.356,0,0,1-3.182-4.714c-.3-.15-4.116-3.858-4.419-4-1.666,2.583-6.906,10.664-4.413,18.213a18.774,18.774,0,0,0,6.976,8.964,12.428,12.428,0,0,1,2.563,5.976c.809,4.17.384,7.424-1.282,12.237-1.959,4.222-6.976,8.4-11.674,8.822-10.044.912-13.721-5.043-13.721-5.043,3.589,1.435,7.557,1.135,9.97-.353,2.432-1.5,3.9-2.62,5.1-2.18,1.177.438,2.115-.833,1.273-2.151a6.08,6.08,0,0,0-6.15-2.678c-2.435.4-4.665,2.324-7.855.457a6.623,6.623,0,0,1-.6-.392c-.21-.138.684.21.475.053a15.594,15.594,0,0,1-2-1.334c-.047-.044.482.169.434.125-2.983-2.456-2.61-4.115-2.516-5.156a2.988,2.988,0,0,1,1.53-2.332c.441.241.716.424.716.424s-.188-.384-.29-.587c.036-.015.07-.011.105-.026.361.174,1.16.627,1.581.9a2.326,2.326,0,0,1,.722.731s.144-.079.038-.416a2.165,2.165,0,0,0-.748-1.02l.034,0a6.289,6.289,0,0,1,.919.638,5.512,5.512,0,0,0,.368-2.176,3.134,3.134,0,0,0-.149-1.2c-.115-.242.065-.337.265-.085a2.543,2.543,0,0,0-.171-.573l0-.019c.25-.87,5.286-3.134,5.653-3.4a5.217,5.217,0,0,0,1.482-1.611,4.131,4.131,0,0,0,.542-2.022c.028-.685-.291-1.141-5.384-1.674a3.411,3.411,0,0,1-2.674-2.078c-.085-.2-.171-.382-.258-.564a4.491,4.491,0,0,1-.2-.653,12.225,12.225,0,0,1,4.288-5.941c.112-.1-.448.026-.336-.076a10.551,10.551,0,0,1,1.145-.54c.2-.093-.843-.534-1.761-.427a4.354,4.354,0,0,0-1.632.428c.207-.206.865-.476.711-.474a9.85,9.85,0,0,0-3.331,1.4.831.831,0,0,1,.065-.337,5.294,5.294,0,0,0-2.081,1.792,3.435,3.435,0,0,0,.021-.418,6.543,6.543,0,0,0-1.022,1.07l-.019.017a12.253,12.253,0,0,0-7.595-.718c-.471-.473-.7-.127-1.774-2.484-.073-.142.056.14,0,0-.176-.457.108.61,0,0-1.8,1.423-4.176,3.036-5.315,4.174-.014.045,1.329-.38,0,0-.465.133-.434.409-.5,2.9-.017.189,0,.4-.017.571a16,16,0,0,0-1.764,2.65,40.058,40.058,0,0,0-3.729,10.189,25.9,25.9,0,0,1,2-3.9c-1.045,2.654-2.055,6.822-2.257,13.24a37.459,37.459,0,0,1,.971-3.924,36.639,36.639,0,0,0,2.691,15.573,38,38,0,0,0,3.952,7.389,35.008,35.008,0,0,0,51.609-.889Z" transform="translate(-77.498 -39.52)"/><path class="d" d="M725,693.4c12.615-1.461,18.2-14.461,11.028-14.716C729.547,678.477,719.021,694.089,725,693.4Z" transform="translate(-669.918 -626.269)"/><path class="e" d="M868.813,454.306c8.679-5.051,6.416-15.962,6.416-15.962a35.679,35.679,0,0,0-5.625,10.094C867.357,454.58,863.6,457.357,868.813,454.306Z" transform="translate(-801.799 -404.547)"/><path class="f" d="M529.89,840.419c12.1,3.861,22.5-5.671,16.09-8.855C540.152,828.693,524.147,838.593,529.89,840.419Z" transform="translate(-490.429 -766.832)"/><path class="g" d="M102.916,69.307c.294-.415.692-1.745,1.044-2.34a13.039,13.039,0,0,0,2.151-6.261c1.29-6.446,1.173-9.078.38-13.945a29.172,29.172,0,0,0-5.853-12.238c-2.494-2.786-.737-1.878-3.152-3.913-2.117-2.346-4.169-4.67-5.287-5.6-8.077-6.752-7.894-8.186-7.739-8.431l-.114.127c-.1-.381-.163-.7-.163-.7a21.672,21.672,0,0,0-5.344,11.773,17.986,17.986,0,0,0,3.8,13.012,29.539,29.539,0,0,0,4.57,4.492v0a17.526,17.526,0,0,1,3.05,10.062A17.027,17.027,0,0,1,69.436,71.914a13.968,13.968,0,0,1-8.27-4.6,8.329,8.329,0,0,1-1.043-1.5c3.972,1.423,8.364,1.125,11.035-.35,2.691-1.492,4.32-2.6,5.642-2.162,1.3.434,2.34-.826,1.41-2.133A7.029,7.029,0,0,0,71.4,58.51c-2.695.392-5.163,2.305-8.694.453a7.459,7.459,0,0,1-.663-.389c-.233-.137.757.209.526.053A17.524,17.524,0,0,1,60.354,57.3c-.053-.043.533.167.48.124-3.3-2.436-2.889-4.081-2.785-5.113A2.963,2.963,0,0,1,59.742,50c.488.239.792.421.792.421s-.208-.381-.321-.582c.039-.015.077-.011.116-.026.4.173,1.284.622,1.749.9a2.427,2.427,0,0,1,.8.725s.16-.079.042-.413a2.16,2.16,0,0,0-.827-1.012l.038,0a7.037,7.037,0,0,1,1.017.633,4.964,4.964,0,0,0,.407-2.158,2.811,2.811,0,0,0-.165-1.192c-.128-.24.072-.334.293-.084a2.327,2.327,0,0,0-.189-.569l0-.019c.277-.863,5.851-3.108,6.256-3.37a5.446,5.446,0,0,0,1.64-1.6,3.785,3.785,0,0,0,.6-2.006c.019-.424-.112-.76-1.588-1.082a39.835,39.835,0,0,0-4.371-.579,3.725,3.725,0,0,1-2.96-2.06c-.094-.2-.189-.38-.285-.559a4.114,4.114,0,0,1-.219-.648,12.274,12.274,0,0,1,4.746-5.891c.124-.1-.5.026-.372-.075a12.347,12.347,0,0,1,1.268-.536c.218-.092-.933-.53-1.949-.423a5.256,5.256,0,0,0-1.806.425c.229-.2.958-.472.787-.471a11.627,11.627,0,0,0-3.687,1.392.749.749,0,0,1,.072-.334,5.737,5.737,0,0,0-2.3,1.778,3.058,3.058,0,0,0,.023-.415,6.868,6.868,0,0,0-1.131,1.061l-.021.017a15.029,15.029,0,0,0-8.406-.713,10.2,10.2,0,0,1-2.548-3.516c-.081-.141-.124.291-.186.152a10.758,10.758,0,0,1-.694-4.031,4.275,4.275,0,0,0-1.744,2.251c-.147.326-.241.507-.335.687-.043.053.1-.6.075-.561a5.157,5.157,0,0,0-.648.977,7.535,7.535,0,0,0-.354.874l-.023.036c-.008-.114.028-.471,0-.4a18.288,18.288,0,0,0-.953,2.311,21.547,21.547,0,0,0-1,5.775c-.019.188,0,.4-.019.567a15.829,15.829,0,0,0-1.952,2.628A37.3,37.3,0,0,0,35.287,48.4a24.719,24.719,0,0,1,2.21-3.872c-1.156,2.632-2.274,6.766-2.5,13.131a33.966,33.966,0,0,1,1.074-3.891,32.965,32.965,0,0,0,2.978,15.444A35.922,35.922,0,0,0,53.275,85.326h0a31.124,31.124,0,0,0,8.289,3.97c.387.141.78.279,1.18.413-.126-.051-.247-.1-.365-.159a37.556,37.556,0,0,0,10.751,1.58c13.568.012,17.57-5.437,17.57-5.437l-.04.029q.287-.27.553-.562c-2.141,2.022-7.026,2.156-8.853,2.01,3.115-.915,5.166-1.689,9.153-3.216q.7-.259,1.432-.592l.159-.072c.1-.045.193-.088.29-.135a27.048,27.048,0,0,0,5.442-3.407,13.64,13.64,0,0,0,5.331-8.373c-.064.2-.261.656-.4.954-1.031,2.206-3.318,3.56-5.8,4.721a53.369,53.369,0,0,0,3.283-4.836C102.058,71.41,102.311,70.152,102.916,69.307Z" transform="translate(-35 -14.916)"/><path class="h" d="M618.432,64.04a25.656,25.656,0,0,0,4.21-6.194c2.858-6.009,7.277-16,3.8-26.436a37.38,37.38,0,0,0-11.322-17.163C607.329,7.093,605.154,3.9,605.154,2c0,0-8.992,10.023-5.092,20.478s11.886,10.071,17.17,20.98C623.45,56.3,612.2,70.3,602.9,74.226c.57-.126,20.678-4.677,21.735-16.179C624.61,58.259,624.157,61.44,618.432,64.04Z" transform="translate(-555.391 -2)"/><path class="i" d="M388.338,262.88c.03-.679-.322-1.135-5.939-1.662-2.311-.213-3.2-2.349-3.466-3.249a16.057,16.057,0,0,0-.979,7.085c.125,1.775,1.317,3.681,1.888,4.8,0,0,.127-.165.185-.226,1.074-1.118,5.572-2.821,5.994-3.063A4.921,4.921,0,0,0,388.338,262.88Z" transform="translate(-351.346 -238.143)"/><path class="j" d="M122.984,112.287c-.081-.141-.124.291-.186.152a10.288,10.288,0,0,1-.675-4.029,4.275,4.275,0,0,0-1.744,2.251c-.147.326-.241.507-.335.687-.043.053.1-.6.075-.561a5.5,5.5,0,0,0-.646.959,5.639,5.639,0,0,0-.357.912c-.03.111.03-.49,0-.417-1.837,3.549-2.187,8.916-1.994,8.689a18.1,18.1,0,0,1,8.39-5.165,9.507,9.507,0,0,1-2.533-3.477Z" transform="translate(-110.722 -100.168)"/><path class="k" d="M250.076,473.085c-5.4-2.306-11.54-5.558-11.308-12.946.316-9.73,9.073-7.807,9.073-7.807a3.169,3.169,0,0,0-1.527,1.38,4.193,4.193,0,0,0,.895,4.717c2.873,3.113-5.9,7.386,7.642,15.457.342.186-3.175-.111-4.774-.8Z" transform="translate(-222.979 -417.31)"/><path class="l" d="M277.6,573.176c3.829,1.333,8.291,1.1,10.962-.376,1.788-1,4.082-2.59,5.493-2.2a9.6,9.6,0,0,0-3.261-.764c-.19,0-.417,0-.623-.025a10.549,10.549,0,0,0-1.22.067,12.173,12.173,0,0,1-2.148.428c-.038,0,.674-.292.616-.279-.368.077-.768.093-1.19.146-.269.03-.5.063-.766.075-7.976.676-14.718-4.323-14.718-4.323-.574,1.932,2.569,5.755,6.856,7.248Z" transform="translate(-252.426 -522.249)"/><path class="m" d="M649.731,85.587c8.068-7.921,12.15-17.55,10.424-28.35a22.836,22.836,0,0,1-1.925,11.2A29.717,29.717,0,0,0,656.3,48.921c-4.453-9.5-11.777-14.5-14.573-16.581-4.236-3.159-5.993-6.376-6.024-7.04-1.266,2.593-5.094,11.479-.411,19.131,4.387,7.17,11.3,9.3,16.136,15.874C660.337,72.421,649.731,85.587,649.731,85.587Z" transform="translate(-586.704 -23.495)"/><path class="n" d="M394.854,405.119c-2.82-5.825-6.339-8.365-9.667-11.119.387.542.483.734.7,1.084a20.564,20.564,0,0,1,4.114,20.3c-5.9,18-29.521,9.523-32,7.142,1,10.417,18.437,15.4,29.789,8.646C394.249,425.059,399.474,414.664,394.854,405.119Z" transform="translate(-332.982 -363.638)"/></svg>