<svg xmlns="http://www.w3.org/2000/svg" xmlns:xlink="http://www.w3.org/1999/xlink" viewBox="0 0 76.238 76.238"><defs><style>.a{fill:url(#a);}.b{fill:url(#b);}</style><linearGradient id="a" x1="0.5" y1="0.016" x2="0.5" y2="0.985" gradientUnits="objectBoundingBox"><stop offset="0.3" stop-color="#ff1b2d"/><stop offset="0.438" stop-color="#fa1a2c"/><stop offset="0.594" stop-color="#ed1528"/><stop offset="0.758" stop-color="#d60e21"/><stop offset="0.927" stop-color="#b70519"/><stop offset="1" stop-color="#a70014"/></linearGradient><linearGradient id="b" x1="0.5" y1="0.009" x2="0.5" y2="0.995" gradientUnits="objectBoundingBox"><stop offset="0" stop-color="#9c0000"/><stop offset="0.7" stop-color="#ff4b4b"/></linearGradient></defs><path class="a" d="M25.581,59.591c-4.229-4.973-6.939-12.329-7.118-20.578V37.226c.179-8.249,2.918-15.605,7.118-20.578C31.061,9.56,39.1,6.373,48.185,6.373c5.6,0,10.87.387,15.337,3.365A37.719,37.719,0,0,0,38.268,0h-.149A38.126,38.126,0,0,0,36.3,76.208c.6.03,1.221.03,1.817.03a37.872,37.872,0,0,0,25.4-9.708c-4.467,2.978-9.44,3.1-15.039,3.1-9.053.03-17.451-2.918-22.9-10.036Z"/><path class="b" d="M85.9,28.514c3.484-4.139,8.011-6.611,12.955-6.611,11.108,0,20.1,12.567,20.1,28.113s-8.994,28.113-20.1,28.113c-4.944,0-9.44-2.5-12.955-6.611,5.48,7.088,13.61,11.614,22.663,11.614a27.433,27.433,0,0,0,15.277-4.676,38.162,38.162,0,0,0,0-56.881A27.36,27.36,0,0,0,108.563,16.9,28.549,28.549,0,0,0,85.9,28.514Z" transform="translate(-60.319 -11.867)"/></svg>