<svg xmlns="http://www.w3.org/2000/svg" viewBox="0 0 35.324 40"><defs><style>.a{fill:#5c9dd5;}</style></defs><g transform="translate(-29.928)"><g transform="translate(41.301 8.026)"><g transform="translate(0)"><path class="a" d="M188.05,107.267a.781.781,0,0,0-.631-.532l-3.4-.493-1.521-3.079a.781.781,0,0,0-.7-.435h0a.781.781,0,0,0-.7.436l-1.519,3.08-3.4.495a.781.781,0,0,0-.433,1.333l2.46,2.4-.58,3.385a.781.781,0,0,0,1.134.823l3.039-1.6,3.04,1.6a.781.781,0,0,0,1.133-.824l-.581-3.385,2.459-2.4A.782.782,0,0,0,188.05,107.267Zm-4.041,2.367a.781.781,0,0,0-.225.692l.383,2.229-2-1.052a.781.781,0,0,0-.727,0l-2,1.053.382-2.23a.781.781,0,0,0-.225-.691l-1.62-1.578,2.238-.326a.781.781,0,0,0,.588-.427l1-2.029,1,2.028a.781.781,0,0,0,.588.427l2.239.325Z" transform="translate(-175.512 -102.728)"/></g></g><g transform="translate(29.928 0)"><g transform="translate(0 0)"><path class="a" d="M65.147,34.326,58.69,23.094a14.219,14.219,0,1,0-22.2,0L30.032,34.326a.781.781,0,0,0,.781,1.164l5.04-.677,1.934,4.7a.781.781,0,0,0,.67.482l.052,0a.781.781,0,0,0,.676-.391L45.7,28.318l0-.005a14.255,14.255,0,0,0,3.764,0l0,.005,6.519,11.291A.781.781,0,0,0,56.67,40l.052,0a.781.781,0,0,0,.67-.482l1.934-4.7,5.04.677a.781.781,0,0,0,.781-1.164Zm-26.52,3.126L37.22,34.028l1.263-2.062a.781.781,0,1,0-1.332-.816l-1.277,2.083-3.7.5,5.412-9.414A14.218,14.218,0,0,0,44.084,28Zm8.962-10.577A12.656,12.656,0,1,1,60.246,14.219,12.671,12.671,0,0,1,47.589,26.875ZM59.3,33.233,58.028,31.15a.781.781,0,0,0-1.332.816l1.263,2.062-1.408,3.424L51.095,28a14.218,14.218,0,0,0,6.5-3.684L63,33.73Z" transform="translate(-29.928 0)"/></g></g><g transform="translate(42.217 4.063)"><g transform="translate(0)"><path class="a" d="M192.6,52a10.161,10.161,0,0,0-4.974,1.3.781.781,0,1,0,.766,1.362A8.6,8.6,0,0,1,200.36,65.854a.781.781,0,1,0,1.41.673,10.066,10.066,0,0,0,.986-4.371A10.168,10.168,0,0,0,192.6,52Z" transform="translate(-187.227 -52)"/></g></g><g transform="translate(53.515 19.969)"><path class="a" d="M333.187,255.819a.781.781,0,0,0-1.1.017l-.017.018a.781.781,0,1,0,1.118,1.092l.021-.021A.781.781,0,0,0,333.187,255.819Z" transform="translate(-331.843 -255.598)"/></g><g transform="translate(37.433 9.555)"><path class="a" d="M141.355,134.809a.781.781,0,0,0-1.061-.307,8.6,8.6,0,0,1-11.966-11.091.781.781,0,1,0-1.422-.648,10.16,10.16,0,0,0,14.142,13.107A.781.781,0,0,0,141.355,134.809Z" transform="translate(-125.996 -122.306)"/></g><g transform="translate(39.932 7.048)"><g transform="translate(0)"><path class="a" d="M159.314,90.426a.781.781,0,0,0-1.1.039l-.017.019a.781.781,0,1,0,1.147,1.061l.014-.015A.781.781,0,0,0,159.314,90.426Z" transform="translate(-157.984 -90.216)"/></g></g></g></svg>