<svg xmlns="http://www.w3.org/2000/svg" viewBox="0 0 42.857 40"><defs><style>.a{fill:#5c9dd5;}</style></defs><g transform="translate(0 -0.25)"><path class="a" d="M2.879,34.821h1.44V33.38H2.879a1.44,1.44,0,0,1-1.44-1.44V3.131a1.44,1.44,0,0,1,1.44-1.44h31.67a1.44,1.44,0,0,1,1.44,1.44v1.44h1.44V3.131A2.88,2.88,0,0,0,34.549.25H2.879A2.88,2.88,0,0,0,0,3.131V31.94A2.88,2.88,0,0,0,2.879,34.821Zm0,0" transform="translate(0 0)"/><path class="a" d="M62.5,62.75h1.357v1.357H62.5Zm0,0" transform="translate(-59.785 -59.785)"/><path class="a" d="M125,62.75h1.357v1.357H125Zm0,0" transform="translate(-119.571 -59.785)"/><path class="a" d="M187.5,62.75h1.357v1.357H187.5Zm0,0" transform="translate(-178.914 -59.785)"/><path class="a" d="M125,156.94a2.88,2.88,0,0,0,2.879,2.881h31.67a2.88,2.88,0,0,0,2.879-2.881V128.131a2.88,2.88,0,0,0-2.879-2.881h-31.67A2.88,2.88,0,0,0,125,128.131Zm1.44-28.809a1.44,1.44,0,0,1,1.44-1.44h31.67a1.44,1.44,0,0,1,1.44,1.44V156.94a1.44,1.44,0,0,1-1.44,1.44h-31.67a1.44,1.44,0,0,1-1.44-1.44Zm0,0" transform="translate(-119.571 -119.571)"/><path class="a" d="M187.5,187.75h1.357v1.357H187.5Zm0,0" transform="translate(-178.914 -178.913)"/><path class="a" d="M250,187.75h1.357v1.357H250Zm0,0" transform="translate(-238.552 -178.913)"/><path class="a" d="M312.5,187.75h1.357v1.357H312.5Zm0,0" transform="translate(-298.19 -178.913)"/><path class="a" d="M187.5,250.25h29.86v1.357H187.5Zm0,0" transform="translate(-177.218 -238.55)"/><path class="a" d="M187.5,328.375h5.429v1.357H187.5Zm0,0" transform="translate(-178.863 -313.097)"/><path class="a" d="M187.5,390.875h4.072v1.357H187.5Zm0,0" transform="translate(-178.881 -372.735)"/><path class="a" d="M426.626,453.375a4.751,4.751,0,1,0,4.75,4.751A4.75,4.75,0,0,0,426.626,453.375Zm0,8.144a3.393,3.393,0,1,1,3.393-3.393A3.393,3.393,0,0,1,426.626,461.519Zm0,0" transform="translate(-402.296 -432.066)"/><path class="a" d="M302.967,321.572a.678.678,0,0,0-.679-.679h-1.794a8.632,8.632,0,0,0-.537-1.3l1.268-1.268a.679.679,0,0,0,0-.96l-2.879-2.879a.679.679,0,0,0-.96,0l-1.267,1.268a8.783,8.783,0,0,0-1.3-.536v-1.794a.678.678,0,0,0-.679-.679h-4.072a.678.678,0,0,0-.679.679v1.794a8.779,8.779,0,0,0-1.3.536l-1.268-1.268a.679.679,0,0,0-.96,0l-2.879,2.879a.679.679,0,0,0,0,.96l1.268,1.268c-.057.111-.111.223-.163.335a8.789,8.789,0,0,0-.373.961h-1.794a.678.678,0,0,0-.679.679v4.072a.678.678,0,0,0,.679.679h1.794a8.631,8.631,0,0,0,.537,1.3l-1.268,1.268a.679.679,0,0,0,0,.96l2.879,2.88a.679.679,0,0,0,.96,0l1.268-1.268a8.778,8.778,0,0,0,1.3.536v1.794a.678.678,0,0,0,.679.679h4.072a.678.678,0,0,0,.679-.679v-1.794a8.782,8.782,0,0,0,1.3-.536l1.267,1.268a.679.679,0,0,0,.96,0l2.879-2.88a.679.679,0,0,0,0-.96l-1.268-1.268a8.635,8.635,0,0,0,.537-1.3h1.794a.678.678,0,0,0,.679-.679Zm-1.357,3.393h-1.625a.679.679,0,0,0-.657.509,7.42,7.42,0,0,1-.794,1.919.679.679,0,0,0,.1.825l1.147,1.148-1.919,1.92-1.148-1.148a.679.679,0,0,0-.825-.1,7.413,7.413,0,0,1-1.919.794.679.679,0,0,0-.509.657v1.625h-2.715v-1.625a.679.679,0,0,0-.509-.657,7.413,7.413,0,0,1-1.919-.794.679.679,0,0,0-.825.1l-1.148,1.148-1.919-1.92,1.147-1.148a.679.679,0,0,0,.1-.825,7.42,7.42,0,0,1-.794-1.919.679.679,0,0,0-.657-.509h-1.625v-2.715h1.625a.679.679,0,0,0,.657-.509,7.371,7.371,0,0,1,.441-1.244,7.494,7.494,0,0,1,.353-.679.679.679,0,0,0-.1-.824l-1.147-1.148,1.919-1.92,1.148,1.149a.678.678,0,0,0,.825.1,7.423,7.423,0,0,1,1.919-.794.679.679,0,0,0,.509-.657v-1.622h2.715v1.625a.679.679,0,0,0,.509.657,7.41,7.41,0,0,1,1.919.794.679.679,0,0,0,.825-.1l1.148-1.148,1.919,1.92L298.638,319a.679.679,0,0,0-.1.825,7.421,7.421,0,0,1,.794,1.919.679.679,0,0,0,.657.509h1.625Zm0,0" transform="translate(-267.66 -296.931)"/><path class="a" d="M781.25,781.5h4.072v1.357H781.25Zm0,0" transform="translate(-745.179 -745.322)"/></g></svg>